<svg width="80" height="40" viewBox="0 0 80 40" fill="none" xmlns="http://www.w3.org/2000/svg">
    <g clip-path="url(#aj5xx06tha)">
        <path d="M65.065 33.82c5.33 0 9.65-5.944 9.65-13.275 0-7.332-4.32-13.275-9.65-13.275s-9.65 5.943-9.65 13.275c0 7.331 4.32 13.275 9.65 13.275z" fill="#fff"/>
        <path d="M61.266 2.866c.354-.145.737-.271 1.207-.401 1.716-.472 2.359-1.338 2.596-1.867.236.529.877 1.395 2.595 1.867.47.13.853.256 1.207.4 1.177.481 2.153 1.073 2.975 1.806L68.93 8.198c-.002.001-.002.003-.002.003-1.184-.701-2.49-1.091-3.86-1.091-1.37 0-2.673.39-3.857 1.091 0-.002-.002-.002-.002-.003L58.293 4.67c.82-.733 1.794-1.325 2.973-1.805z" fill="#FFF685"/>
        <path d="M61 23.976c.074.118-.074.252-.184.163a4.695 4.695 0 0 1 .983-7.954c.132-.06.243.115.134.207-1.094.947-1.813 2.54-1.813 4.345-.002 1.221.328 2.346.88 3.239zm9.013-3.239c0-1.806-.718-3.398-1.812-4.345-.11-.094.002-.267.133-.207a4.695 4.695 0 0 1 .983 7.954c-.109.087-.257-.045-.183-.163.55-.893.88-2.018.88-3.239zm-4.948-5.27a.81.81 0 0 1-.637.332.763.763 0 0 1-.466-.164 1 1 0 0 1-.317-.425 1.204 1.204 0 0 1-.087-.412c-.002-.06.08-.078.104-.024.13.278.398.47.709.47a.78.78 0 0 0 .642-.351.062.062 0 0 1 .052-.028c.02 0 .039.01.052.028.144.213.378.35.642.35.311 0 .58-.19.71-.469.025-.054.105-.035.103.024a1.204 1.204 0 0 1-.087.412 1.011 1.011 0 0 1-.317.425.774.774 0 0 1-.466.164.82.82 0 0 1-.637-.333zm2.903 10.023a5.153 5.153 0 0 1-2.316.187c-.01-.002-.02.004-.026.012l-.448.705a.127.127 0 0 1-.215 0l-.448-.706c-.005-.009-.014-.012-.026-.01a5.147 5.147 0 0 1-2.316-.187c-.059-.02-.04-.109.02-.103l.064.005a4.898 4.898 0 0 0 1.742-.202c.022-.007.024-.037.003-.048-1.775-.928-2.961-2.853-2.886-5.031a5.479 5.479 0 0 1 1.585-3.68c.07-.073.185.016.137.103-.618 1.106-.885 2.46-.672 3.862.246 1.613 1.081 2.981 2.225 3.876.017.012.043 0 .043-.02l-.148-7.898c0-.039.024-.072.059-.083.272-.09.489-.271.66-.473.017-.02.042-.03.066-.03s.048.01.064.03c.174.2.391.384.661.473a.084.084 0 0 1 .06.083l-.148 7.897c0 .022.023.035.042.02 1.144-.896 1.979-2.264 2.225-3.875a6.036 6.036 0 0 0-.672-3.862c-.05-.087.065-.176.137-.104a5.475 5.475 0 0 1 1.585 3.68c.078 2.18-1.109 4.104-2.886 5.032-.02.011-.019.04.004.048a4.94 4.94 0 0 0 1.805.197c.06-.006.08.083.02.102zM63.117 6.12c-.013.091-.028.134-.043.128-.017-.005-.03-.048-.039-.133a4.216 4.216 0 0 0-.366-1.381 2.536 2.536 0 0 0-.24-.409.197.197 0 0 1-.023-.193c.016-.07.035-.14.057-.207a1.91 1.91 0 0 0 .057-.208c.013-.043.026-.067.04-.075.012-.007.029.008.053.047.105.165.2.345.28.542a3.759 3.759 0 0 1 .272 1.26c.005.215-.01.425-.048.63zM65.075 4.233a.459.459 0 0 1-.237.191c-.092.03-.192 0-.3-.089-.025-.026-.04-.037-.042-.032a.426.426 0 0 1-.048.05.447.447 0 0 1-.178.136.145.145 0 0 0-.026.013c-.002.002 0 .013.007.037.084.262.136.525.158.793.02.267.003.54-.05.816-.017.074-.03.108-.04.102-.012-.005-.021-.044-.027-.115a4.631 4.631 0 0 0-.198-.998 2.913 2.913 0 0 0-.405-.806c-.045-.065-.06-.13-.045-.198.019-.067.041-.138.063-.21a4.86 4.86 0 0 1 .078-.23.206.206 0 0 1 .024-.05c.006-.008.019 0 .033.026.048.057.11.113.182.167a.422.422 0 0 0 .22.089.253.253 0 0 0 .118-.019.413.413 0 0 0 .186-.163.627.627 0 0 0 .057-.111c.017-.045.03-.063.04-.056a.232.232 0 0 1 .047.056c.03.055.061.1.096.137.035.037.087.056.154.056.131 0 .226-.067.285-.199.013-.035.024-.054.037-.056.011-.001.015.019.013.062a1.33 1.33 0 0 1-.061.317c-.037.104-.083.2-.14.284zM65.798 5.234c-.032.084-.07.16-.117.227-.055.067-.098.102-.133.104a.305.305 0 0 1-.147-.05 2.203 2.203 0 0 1-.133-.067l-.118-.067c-.032-.018-.048-.033-.048-.043a.26.26 0 0 1 .018-.066 28.104 28.104 0 0 0 .189-.43c.018-.044.037-.066.055-.068.019-.003.045.006.08.024l.168.095c.058.033.11.072.154.119.035.035.052.07.05.106a.367.367 0 0 1-.018.116zM67.741 3.965a.604.604 0 0 1-.013.137.252.252 0 0 1-.06.119c-.227.275-.397.57-.512.887a5.149 5.149 0 0 0-.255 1.004c-.017.093-.035.14-.056.136-.02-.004-.037-.052-.05-.145a3.455 3.455 0 0 0-.664-1.702.284.284 0 0 1-.048-.104.267.267 0 0 1 .005-.119c.01-.06.022-.128.037-.198s.03-.15.046-.238c.01-.052.03-.055.058-.015.335.516.55.99.646 1.422.013.039.026.039.039 0 .026-.126.063-.254.113-.384a4.008 4.008 0 0 1 .644-1.104c.031-.04.052-.056.061-.05.007.005.013.027.013.07v.284h-.004z" fill="#ED1C24"/>
        <path d="M79.258 18.831c-.069.099-.146.21-.161.353-.01.096.013.187.032.267.009.041.02.08.023.117.036.258-.14.51-.309.726-.139.178-.281.364-.448.505-.048.04-.1.078-.153.118a2.374 2.374 0 0 0-.243.2.668.668 0 0 0-.092-.164c.181-.342.326-.72.442-1.029.063-.168.135-.36.133-.566 0-.055-.005-.109-.01-.161-.006-.057-.014-.111-.01-.163.006-.156.081-.303.163-.459.1-.195.205-.395.181-.633-.02-.213-.135-.376-.248-.534-.103-.149-.203-.288-.202-.45a.84.84 0 0 1 .036-.203.881.881 0 0 0 .037-.321.816.816 0 0 0 .314-.14c.067-.044.13-.096.191-.146.076-.063.148-.12.226-.167a.166.166 0 0 1 .068-.028c.032 0 .084.074.086.167.001.076-.017.154-.036.238-.01.044-.02.087-.027.131a1.2 1.2 0 0 0 .207.912c.035.046.074.09.111.133.104.119.193.221.196.35.002.096-.046.194-.098.288a6.81 6.81 0 0 1-.409.66zm-.968 3.467a.626.626 0 0 1-.07.24 1.155 1.155 0 0 0-.084.248c-.039.234.058.429.15.618.076.152.146.297.137.45-.011.168-.118.315-.233.47-.115.157-.233.316-.274.52-.013.07-.017.134-.02.199a1.494 1.494 0 0 1-.012.137c-.024.162-.11.312-.192.457-.22.386-.47.818-.783 1.162a.403.403 0 0 0-.285.074 2.268 2.268 0 0 0-.106-1.102c-.052-.162-.102-.316-.074-.466.019-.099.069-.195.122-.297.08-.154.163-.312.148-.501-.009-.114-.053-.208-.092-.294a.729.729 0 0 1-.072-.204c-.017-.143.063-.287.148-.441.037-.067.076-.136.107-.208.13-.293.139-.655.037-1.006a1.57 1.57 0 0 0 .415-.668c.016-.05.03-.099.04-.147l.008-.03c.054-.22.122-.495.27-.512.095-.01.182.112.224.229.02.059.037.12.052.187.028.111.056.224.113.33.044.084.104.156.161.225.087.111.167.208.165.33zm.08.527c.01-.063.038-.128.066-.197a.858.858 0 0 0 .087-.317.871.871 0 0 0 .333-.081c.074-.034.143-.075.211-.116.086-.05.165-.096.248-.128a.206.206 0 0 1 .073-.016c.031.005.07.087.057.178-.01.074-.04.15-.072.228-.017.041-.034.084-.048.126-.108.308-.084.657.06.934.029.052.06.102.09.15.083.134.155.249.139.377-.014.095-.078.184-.141.267a6.412 6.412 0 0 1-.51.588c-.083.086-.177.184-.214.323-.026.095-.017.188-.011.27.004.042.007.081.005.118-.007.26-.22.481-.418.668a3.42 3.42 0 0 1-.522.427c-.056.034-.111.062-.17.093-.106.056-.215.111-.317.191-.039.03-.08.067-.122.108a.433.433 0 0 0-.07-.108c.314-.356.566-.796.773-1.158.09-.156.191-.334.222-.538.01-.056.012-.11.013-.162.004-.057.006-.113.017-.163.03-.152.13-.286.233-.427.13-.176.265-.358.28-.595.013-.214-.074-.394-.16-.568-.084-.158-.16-.312-.133-.472zm-.773 5.85c.082-.002.162-.013.24-.022.097-.013.188-.024.279-.02.013 0 .055.001.072.012.028.017.03.108-.017.186a.946.946 0 0 1-.157.182c-.031.031-.065.063-.094.096a1.197 1.197 0 0 0-.31.884c.006.06.015.117.023.172.024.156.046.29-.02.401-.049.082-.143.14-.236.191-.226.127-.459.24-.698.342-.109.046-.235.098-.324.211-.06.077-.089.166-.115.244-.012.039-.025.078-.04.11-.108.238-.39.357-.648.45-.213.076-.431.156-.648.187-.063.01-.126.013-.193.019-.118.01-.242.019-.366.052-.063.017-.18.057-.3.12a.478.478 0 0 0-.01-.137c.476-.198.91-.525 1.297-.818.142-.108.305-.232.414-.407.03-.048.054-.096.076-.142.026-.052.05-.1.08-.145.087-.128.23-.212.381-.301.189-.111.383-.225.49-.438.097-.191.086-.392.077-.584-.01-.182-.019-.353.068-.489.035-.053.085-.102.139-.154a.859.859 0 0 0 .205-.258.78.78 0 0 0 .335.056zm-3.717 5.423c.078.024.156.04.233.058.097.02.187.04.27.074.014.005.05.02.064.037.02.026-.008.111-.076.17-.058.049-.132.084-.208.121l-.12.06a1.197 1.197 0 0 0-.618.901c-.028.155-.052.288-.152.372-.072.061-.18.083-.285.102a7.137 7.137 0 0 1-.772.09c-.119.008-.254.016-.376.093a.768.768 0 0 0-.189.192c-.026.033-.05.065-.076.09-.18.188-.487.207-.759.21-.225.002-.459.006-.674-.039-.063-.013-.124-.03-.188-.046a1.845 1.845 0 0 0-.363-.072c-.137-.012-.54-.004-.748.144a.747.747 0 0 1-.12.076c-.236.106-.989.4-1.642.186a4.12 4.12 0 0 1 .71-.219.496.496 0 0 0 .306-.208c.08.011.166.017.263.017.751 0 1.944-.299 2.44-.457.17-.055.364-.117.525-.246.043-.036.082-.073.119-.11.04-.04.08-.08.122-.11.126-.09.287-.122.46-.157.214-.043.434-.086.606-.25.154-.15.21-.342.263-.528.05-.174.098-.338.224-.438.05-.039.115-.069.182-.1a.857.857 0 0 0 .277-.176c.078.068.18.124.302.163zm-7.575 3.073c-.013-.02-.026-.042-.043-.065a.983.983 0 0 0-.333-.285l-.089-.047a8.912 8.912 0 0 1 1.437-1.434.108.108 0 0 0 .016-.155.107.107 0 0 0-.153-.016c-.308.248-.593.503-.85.764-.135-.14-.474-.378-1.224-.378s-1.088.237-1.223.378a9.835 9.835 0 0 0-.85-.764.109.109 0 0 0-.154.017.11.11 0 0 0 .017.154 8.91 8.91 0 0 1 1.437 1.434c-.032.015-.062.032-.09.047a.988.988 0 0 0-.333.285l-.042.065c-.361-.404-1.039-.603-1.44-.69a.282.282 0 0 1-.22-.275v-.963c0-.156.125-.282.28-.282h1.065c.235 0 .322 0 .717-.082.157-.031.28-.072.386-.11.158-.051.282-.094.458-.087.168-.007.29.036.45.088.107.035.23.076.386.11.393.08.482.08.717.08h1.064c.156 0 .282.127.282.283v.963a.282.282 0 0 1-.22.275c-.41.087-1.087.286-1.448.69zm2.088.86c.23-.038.34.003.368.055.032.058-.005.195-.164.373a2.508 2.508 0 0 1-.437.379h-.354c-1.17.054-1.703-.39-1.934-.71l.248-.324c.388.225 1.08.414 2.273.227zm-.142 1.011c.225-.152.383-.304.459-.382.427.182 1.073.315 1.98.17l-.542.26a.11.11 0 0 0-.035.173l.365.414c-.537.087-2.076.274-2.831-.279-.004-.002-.013-.009-.011-.026.002-.005.005-.022.024-.028.216-.076.405-.18.563-.283m-3.057-2.465h-.198a1.22 1.22 0 0 0-.468.089 7.394 7.394 0 0 0-.507-.594c.089-.096.366-.317 1.071-.317.702 0 .984.22 1.072.317a8.063 8.063 0 0 0-.505.592 1.205 1.205 0 0 0-.465-.087zm.161 1.57-.26-.07-.262.07c-.115.032-.235.006-.287-.061l-.533-.696c-.02-.026.004-.093.061-.17a.772.772 0 0 1 .261-.224c.14-.076.402-.198.624-.198h.243c.23-.011.507.119.653.197a.77.77 0 0 1 .261.222c.058.078.08.145.061.171l-.533.696c-.055.067-.176.095-.289.063zm-3.006.672h-.348c-.274-.191-.435-.377-.439-.38-.157-.177-.194-.314-.163-.372.028-.052.14-.093.369-.055 1.19.185 1.882-.004 2.273-.227l.248.323c-.231.321-.764.767-1.94.71zm.17.532c.002.017-.007.025-.01.027-.756.553-2.295.365-2.831.278l.364-.414a.117.117 0 0 0 .026-.095.113.113 0 0 0-.06-.078l-.543-.26c.907.145 1.553.01 1.98-.17.076.08.236.232.46.382v.017h.024c.157.104.346.206.563.284.022.007.025.024.027.03zm-4.495-3.2c-.137-.129-.264-.276-.39-.417a5.634 5.634 0 0 0-.41-.436 3.067 3.067 0 0 0-1.36-.733c.033-.024.063-.044.087-.06.51-.287 1.181-.131 1.486-.035.156.201.323.387.5.552.948.887 2.544 1.483 4.271 1.59.048.03.1.052.158.065.157.034.359.086.564.162-3.149.647-4.12.044-4.906-.689zm-4.27-4.719c-.086-.169-.154-.349-.223-.525-.07-.182-.142-.371-.233-.551a3.1 3.1 0 0 0-1.022-1.162.854.854 0 0 1 .102-.024c.578-.093 1.153.288 1.405.483.078.24.17.475.278.69.49.98 1.385 1.847 2.45 2.38.029.083.058.166.09.25-1.135.069-2.372-.594-2.847-1.54zm-2.451-5.803c-.025-.187-.028-.382-.034-.57-.005-.195-.01-.397-.035-.597a3.089 3.089 0 0 0-.576-1.437.74.74 0 0 1 .106.011c.576.108.99.66 1.162.928-.009.255.002.503.032.744.133 1.068.716 2.228 1.559 3.105-.002.078 0 .154.001.232-1.108-.345-2.088-1.399-2.215-2.416zm-.402-6.353c.037-.185.092-.37.146-.55.056-.188.115-.381.154-.58.1-.51.064-1.05-.097-1.546.037.015.073.03.097.045.512.284.735.937.814 1.247-.087.24-.157.479-.203.716-.195.988.009 2.322.518 3.432a6.356 6.356 0 0 0-.096.263c-.945-.655-1.539-1.987-1.333-3.027zm1.133-5.883c.072-.174.164-.345.255-.51a5.98 5.98 0 0 0 .267-.535c.2-.48.274-1.015.216-1.533a.792.792 0 0 1 .086.063c.446.38.53 1.066.546 1.385-.134.215-.25.438-.345.66-.416.993-.492 2.281-.205 3.45a7.293 7.293 0 0 0-.14.192c-.788-.824-1.087-2.196-.68-3.172zm3.038-2.568a6.828 6.828 0 0 0-.076.23l-.024.074c-.091.277-.141.572-.145.878-.003.273.023.546.048.809.037.382.073.742.023 1.11-.113.824-.633 1.401-1.187 2.012-.028.03-.056.06-.083.092a.832.832 0 0 1 .064-.202.128.128 0 0 0-.035-.165.129.129 0 0 0-.168.007 5.473 5.473 0 0 0-.44.462c-.225-1.067-.14-2.216.236-3.11.348-.83 1-1.626 1.787-2.197zm-.14-2.914c.125-.126.267-.243.402-.356.143-.117.29-.24.423-.375a2.92 2.92 0 0 0 .727-1.253.982.982 0 0 1 .045.072c.253.488.09 1.114-.01 1.398a4.398 4.398 0 0 0-.533.456c-.66.668-1.157 1.78-1.33 2.985a5.148 5.148 0 0 0-.184.157c-.348-.954-.258-2.36.46-3.084zm3.409-1.006c-.019.022-.033.04-.046.058-.178.21-.324.45-.437.718-.1.237-.172.484-.243.725-.102.347-.198.676-.37.977-.383.671-1.037.985-1.73 1.315l-.16.078a.857.857 0 0 1 .111-.2.128.128 0 0 0 0-.169.128.128 0 0 0-.167-.028c-.122.074-.24.154-.357.238.196-1.054.64-2.006 1.22-2.591.589-.594 1.431-1.056 2.314-1.279-.046.052-.09.106-.135.158zm.278 1.514c.09-.01.22-.01.344-.007-.393.299-.687.718-.974 1.125-.237.336-.481.685-.776.955-.568.522-1.303.774-2.003.695l.019-.058.006-.019c.127-.064.259-.128.385-.189.696-.334 1.414-.68 1.836-1.416.154-.269.252-.559.337-.844.28-.108.54-.208.826-.242zm-2.762 4.003a3.09 3.09 0 0 1 .355-.152c-.274.453-.4.988-.52 1.51-.1.424-.202.864-.383 1.248-.36.757-1.004 1.309-1.744 1.498.002-.011.002-.02.002-.032l.003-.03c.106-.122.217-.246.326-.365.554-.61 1.124-1.243 1.248-2.143.044-.327.026-.65-.004-.967l.002-.002c.23-.214.446-.416.715-.565zm-2.044 6.797c.054.803-.387 1.533-.815 2.238l-.122.206a.727.727 0 0 1 0-.191.132.132 0 0 0-.083-.147.131.131 0 0 0-.16.06 7.733 7.733 0 0 0-.173.345c-.42-1.02-.582-2.196-.41-3.073.174-.88.654-1.791 1.31-2.51-.012.078-.021.16-.029.24-.003.03-.005.055-.009.078-.033.29-.022.588.035.889.05.267.132.529.21.783.114.367.222.713.246 1.082zm.637-1.665c.077-.067.2-.146.316-.22-.178.498-.192 1.048-.207 1.582-.011.436-.024.887-.126 1.301-.207.848-.78 1.587-1.474 1.921l-.014-.072-.006-.03c.085-.148.174-.297.268-.455.447-.738.907-1.501.85-2.383a4.246 4.246 0 0 0-.198-.946l.002-.002c.183-.254.355-.495.589-.696zm-.972 6.152c.222.312.433.607.572.95.307.758.124 1.58-.054 2.376-.017.07-.031.143-.048.215-.05-.094-.09-.189-.104-.26a.13.13 0 0 0-.128-.11.128.128 0 0 0-.13.109c-.025.158-.044.319-.055.48-.72-.816-1.212-1.843-1.33-2.789-.104-.837.04-1.787.388-2.637l.006-.002-.002-.004c.02-.05.042-.1.065-.15.014.078.031.158.048.237a2.94 2.94 0 0 0 .328.91c.133.237.29.46.444.675zm.655-.83c.054-.087.145-.201.233-.31-.013.53.147 1.057.3 1.57.126.417.256.85.289 1.274.067.85-.23 1.66-.792 2.194-.002-.004-.004-.008-.008-.01l-.02-.033c.031-.158.067-.317.102-.475.185-.833.377-1.695.042-2.522a4.332 4.332 0 0 0-.483-.837v-.002c.09-.303.178-.587.337-.848zm.383 5.526c.204.18.428.338.645.488.314.219.61.427.855.703.544.615.65 1.465.751 2.289.013.104.026.211.041.317a1.112 1.112 0 0 1-.235-.253.131.131 0 0 0-.242.09c.022.118.051.237.083.356-.928-.514-1.698-1.29-2.135-2.16-.401-.8-.581-1.815-.501-2.786.038.069.081.14.124.208.014.024.03.048.04.067.152.248.345.479.574.68zm.985-.514c.02-.1.069-.24.115-.37.165.503.49.947.805 1.377.258.353.524.717.698 1.105.354.794.339 1.677-.037 2.377a17.54 17.54 0 0 1-.07-.527c-.108-.86-.217-1.75-.813-2.42a4.267 4.267 0 0 0-.735-.626v-.001c-.013-.316-.026-.615.037-.915zm2.964 5.39c.37.096.72.187 1.046.361.38.202.596.572.85.999.309.523.69 1.169 1.501 1.7-1.53-.16-2.914-.707-3.756-1.496-.654-.61-1.172-1.502-1.435-2.439.061.052.124.102.189.15.022.019.044.034.061.049.226.181.487.328.772.44.252.1.517.168.772.235zm1.187-.435c.362.241.738.488 1.036.794.587.602.926 1.448.889 2.179-.485-.421-.757-.883-1.003-1.303-.273-.46-.506-.855-.945-1.091a4.33 4.33 0 0 0-.905-.332l-.002-.004c-.122-.291-.237-.566-.281-.868a2.995 2.995 0 0 1-.019-.387c.326.414.784.717 1.23 1.012zm10.08 2.409c.024-.047.044-.095.066-.143.07-.156.137-.3.258-.394.08-.06.181-.098.29-.137.163-.06.33-.119.447-.269.068-.089.1-.191.127-.28.024-.074.045-.145.085-.199.084-.118.241-.17.406-.226.072-.024.146-.05.218-.082.293-.13.543-.39.704-.718a1.56 1.56 0 0 0 .91-.312l.086-.056v.002l.007-.005c.169-.108.35-.208.45-.134.076.056.06.204.011.32-.015.037-.035.074-.056.113a.425.425 0 0 0-.046.085c-.05.093-.1.19-.126.295-.024.093-.027.186-.033.275a.825.825 0 0 1-.046.284s-.041.066-.05.076c-.052.055-.13.09-.213.13a1.125 1.125 0 0 0-.23.128c-.185.146-.246.354-.305.556-.048.164-.093.32-.202.424-.122.117-.3.152-.49.189-.19.037-.386.076-.552.199-.056.04-.104.087-.148.131-.034.034-.067.067-.102.095-.126.102-.29.156-.45.206-.589.19-1.901.497-2.547.438l.002-.017c.318-.107 1.273-.47 1.529-.974zm-.946-.091c.014-.072.024-.145.031-.213.019-.154.037-.3.111-.422.043-.069.104-.132.167-.197.03-.03.06-.06.089-.092.181-.203.303-.44.422-.668.142-.277.276-.537.501-.726.167-.141.37-.228.586-.323.096-.043.194-.085.29-.134.339-.17.646-.412.892-.7.156-.181.3-.28.445-.302v.017c.002.358.005.73-.108 1.084-.12.38-.373.688-.677.824-.061.028-.128.05-.198.074-.195.065-.395.134-.522.314-.061.085-.091.181-.117.265a.658.658 0 0 1-.09.206c-.075.096-.204.143-.341.193-.12.043-.245.09-.354.17-.168.129-.25.309-.33.483-.02.045-.04.091-.062.134-.145.286-.622.557-1.09.748.209-.197.292-.425.355-.735zm4.361-3.788c-.009-.072-.026-.143-.04-.212-.034-.15-.065-.293-.034-.434.017-.08.054-.158.093-.241.018-.039.037-.078.052-.117.105-.25.142-.514.177-.77.043-.308.085-.598.236-.852.11-.19.273-.34.446-.497.075-.07.155-.145.231-.223.263-.273.474-.603.61-.956.088-.223.192-.364.32-.432l.005.014c.12.338.244.687.255 1.058.011.4-.126.774-.368 1.003-.05.046-.104.089-.163.135-.161.126-.328.256-.389.468-.03.1-.026.2-.024.29.002.08.006.157-.016.224-.04.115-.145.202-.258.293a1.27 1.27 0 0 0-.276.278c-.116.177-.133.375-.151.565-.004.05-.01.098-.015.146a1.69 1.69 0 0 1-.637 1.127c-.03.018-.057.039-.085.057l-.08.054a1.46 1.46 0 0 1-.24.123c.222-.336.398-.763.351-1.101zm3.779-4.36c.09.028.124.175.116.297-.003.062-.014.127-.024.194a1.358 1.358 0 0 0-.026.348c.01.095.035.184.06.271.03.104.057.197.05.284 0 0-.008.063-.023.09a.924.924 0 0 1-.159.192c-.06.06-.124.12-.174.197-.128.199-.115.416-.103.627.009.171.018.33-.05.466-.076.15-.234.243-.4.342-.167.096-.34.198-.456.37a1.363 1.363 0 0 0-.096.174c-.02.042-.04.085-.065.122-.085.14-.224.243-.357.343-.382.29-.813.613-1.27.8-.008-.005-.013-.013-.022-.02a.37.37 0 0 0-.208-.072c.185-.259.306-.563.35-.891.008-.052.011-.104.017-.156.015-.17.03-.33.113-.459.055-.083.139-.152.23-.224.133-.11.272-.223.33-.403.036-.108.032-.213.03-.306-.001-.078-.005-.15.015-.217.04-.14.17-.242.31-.35.06-.046.121-.096.179-.148.233-.219.385-.547.427-.91.269-.1.515-.28.699-.517.009-.011.053-.067.062-.083.135-.18.304-.403.445-.36zm-1.096-.54c-.037-.063-.08-.122-.12-.18-.09-.126-.175-.245-.202-.386a1.178 1.178 0 0 1-.01-.257c.002-.043.004-.086.002-.129-.002-.27-.07-.528-.137-.78-.08-.298-.157-.582-.116-.875.03-.217.118-.42.214-.633.043-.096.087-.195.126-.295.135-.355.2-.742.19-1.12-.008-.238.032-.411.123-.524l.011.01c.243.264.495.535.65.873.167.364.187.761.054 1.065a3.085 3.085 0 0 1-.097.19c-.098.18-.201.363-.174.582.013.104.056.195.093.275.033.074.067.143.072.213.01.121-.053.244-.122.372-.06.113-.12.23-.144.365-.037.208.024.398.081.58l.044.14c.128.457.095.93-.083 1.287l-.048.063c-.065.083-.139.16-.222.226.044-.375-.019-.783-.185-1.061zm.601-5.51c-.046-.055-.098-.107-.146-.157-.107-.11-.21-.214-.259-.35a1.165 1.165 0 0 1-.05-.254l-.017-.126c-.044-.267-.153-.512-.259-.748-.126-.284-.246-.55-.254-.846-.005-.219.052-.432.113-.659.028-.102.056-.206.078-.312.078-.37.08-.764.01-1.135-.045-.234-.032-.41.038-.537l.013.01c.282.22.572.45.78.759.222.332.305.722.22 1.044-.017.065-.04.132-.067.203-.068.193-.14.391-.08.603.03.102.086.184.134.258a.636.636 0 0 1 .106.2c.03.117-.015.249-.062.386a1.25 1.25 0 0 0-.085.384c-.003.212.085.388.172.56.023.044.045.088.065.133.167.364.304.753.198 1.15a.686.686 0 0 1-.033.103c-.06.17-.154.33-.27.46l-.004-.01c-.015-.033-.033-.066-.05-.098.057-.427-.02-.698-.29-1.02zm.683-5.06.01-.099c.018-.226.042-.508.185-.548.093-.026.196.082.255.19.011.018.02.039.03.06.01.03.022.06.04.088.004.01.01.019.014.03.044.106.09.213.163.308.057.076.127.137.194.197.11.096.204.18.222.3a.671.671 0 0 1-.031.25 1.15 1.15 0 0 0-.043.259c-.002.236.124.414.244.586.099.14.191.271.206.422.017.169-.069.33-.157.503-.09.17-.182.349-.19.556a1.14 1.14 0 0 0 .012.199c.005.048.011.093.011.137.002.164-.06.325-.119.481-.109.29-.242.64-.407.958a.36.36 0 0 0-.181-.034.382.382 0 0 0-.263.15 3.059 3.059 0 0 0-.22-.616l-.069-.14c-.078-.153-.15-.296-.146-.448.002-.1.037-.204.074-.314.055-.163.113-.334.067-.517-.026-.11-.087-.197-.14-.275-.042-.065-.084-.124-.103-.191-.04-.14.017-.295.076-.46.026-.073.054-.147.072-.223.082-.31.034-.668-.122-.999.176-.228.287-.512.317-.81zm-.942-.535c-.065-.024-.13-.045-.192-.065-.14-.043-.27-.082-.365-.169a.99.99 0 0 1-.139-.178 2.951 2.951 0 0 0-.065-.095c-.142-.197-.333-.345-.52-.49-.22-.17-.427-.334-.544-.56-.087-.17-.115-.362-.145-.566a3.97 3.97 0 0 0-.048-.282 2.297 2.297 0 0 0-.422-.915c-.127-.167-.181-.31-.16-.438.012 0 .018 0 .03.003.34.058.691.12.995.279.322.169.542.441.587.727.009.058.013.12.016.188.01.176.02.378.16.525.064.07.148.113.22.15a.57.57 0 0 1 .168.114c.067.077.076.19.085.322.01.116.019.234.069.347.078.175.235.284.372.379l.11.078c.32.243.497.583.516.982l-.008.081-.005.07c-.148-.198-.381-.357-.715-.487zm-1.277-4.308-.03-.083c-.085-.236-.142-.423-.033-.509.08-.063.222-.024.318.04.049.03.093.066.14.105.079.065.162.134.266.178.081.037.166.056.25.074.135.032.251.058.31.143.038.052.049.127.062.203a.868.868 0 0 0 .06.228c.092.195.28.288.449.371.14.069.272.134.34.245.075.123.06.284.045.455-.017.176-.033.358.039.53a.98.98 0 0 0 .087.157c.022.035.044.068.06.103.062.127.068.279.073.427.015.41.03.874-.068 1.301-.006.002-.01.002-.015.002a.374.374 0 0 0-.228.18 1.491 1.491 0 0 0-.505-.664c-.037-.028-.078-.056-.117-.084-.126-.087-.244-.17-.296-.287a.824.824 0 0 1-.05-.275c-.011-.149-.024-.32-.139-.451-.067-.078-.155-.123-.231-.163-.063-.034-.123-.064-.163-.106-.084-.09-.091-.234-.1-.386-.004-.069-.008-.14-.019-.21-.044-.282-.22-.55-.483-.748.07-.254.065-.527-.022-.776zm-1.224-.284c-.067-.014-.135-.024-.2-.035-.144-.02-.28-.04-.385-.111-.059-.04-.109-.097-.163-.156-.026-.028-.052-.058-.078-.084-.17-.172-.38-.291-.586-.406-.243-.136-.474-.265-.622-.473-.111-.154-.167-.342-.228-.539-.028-.089-.056-.181-.089-.27a2.275 2.275 0 0 0-.555-.843c-.152-.145-.226-.28-.224-.41.007-.002.02-.002.031-.002.344.007.7.013 1.024.126.344.119.602.355.689.631.018.056.03.117.042.182.035.174.076.371.235.496.076.059.163.089.241.116.07.025.137.047.183.086.078.067.104.178.132.306.026.113.051.23.118.334.104.162.274.245.424.32.04.02.081.038.119.06.462.253.73.51.82.782a5.665 5.665 0 0 0 .083.245l.011.039c-.265-.19-.674-.316-1.022-.394zM71.74 6.727c-.013-.026-.028-.052-.04-.078-.12-.22-.204-.397-.11-.497.07-.074.217-.058.32-.01.052.025.102.053.154.084.089.052.182.108.289.138.085.024.174.03.259.037.137.01.257.018.328.094.044.047.066.117.09.191.025.073.049.147.095.218.118.178.32.243.5.298.15.047.288.091.372.192.092.109.102.272.11.443.01.176.021.358.118.518.033.054.072.098.109.14.028.032.053.062.076.094.08.115.107.265.133.41.076.41.161.872.126 1.314 0 0-.002 0-.002.002a.356.356 0 0 0-.11.14c-.201-.231-.477-.402-.7-.523a2.716 2.716 0 0 0-.127-.065c-.137-.066-.266-.131-.337-.24-.046-.073-.066-.166-.09-.264-.034-.147-.07-.312-.204-.425-.078-.067-.172-.099-.254-.127a.553.553 0 0 1-.176-.081c-.096-.076-.126-.217-.155-.368a2.01 2.01 0 0 0-.048-.204c-.085-.273-.3-.51-.59-.668a1.295 1.295 0 0 0-.136-.763zm1.568-.636a2.55 2.55 0 0 0 .087-.212c.033-.087.065-.17.108-.247.013-.022.03-.052.05-.063.038-.024.114.008.157.065.037.052.06.119.083.19l.04.113c.114.27.349.48.63.562.052.015.108.026.16.037.136.028.266.054.327.143.046.065.052.161.056.254.009.234.002.472-.017.71-.01.11-.02.235.04.352.041.08.106.135.164.184.028.024.053.046.076.07.15.163.127.442.092.689a3.01 3.01 0 0 1-.128.616c-.02.057-.046.115-.07.172-.044.104-.093.212-.118.33a1.326 1.326 0 0 0-.028.196.467.467 0 0 0-.124-.013c.02-.444-.065-.902-.135-1.277-.03-.16-.063-.342-.169-.494a1.116 1.116 0 0 0-.09-.113.755.755 0 0 1-.087-.111c-.069-.114-.078-.26-.086-.416-.01-.2-.022-.407-.163-.574-.124-.148-.301-.204-.474-.26-.157-.05-.307-.096-.38-.211-.03-.045-.049-.104-.07-.165a.764.764 0 0 0-.127-.258.848.848 0 0 0 .196-.27zm3.205 4.593c.044-.065.081-.132.118-.197.046-.081.089-.16.143-.228.016-.02.037-.046.057-.056.04-.018.113.026.146.09.03.057.043.126.056.2a.982.982 0 0 0 .563.768 1.7 1.7 0 0 0 .151.06c.132.048.256.092.304.189.035.07.028.167.017.26a6.114 6.114 0 0 1-.123.697c-.025.108-.055.232-.012.357.027.085.083.148.133.206.024.028.046.054.065.08.124.185.059.454-.01.694-.059.2-.118.408-.218.588-.03.054-.063.108-.095.16a1.882 1.882 0 0 0-.166.308c-.022.057-.054.16-.076.273a.545.545 0 0 0-.113-.067c.096-.45.081-.936.069-1.33-.006-.162-.013-.348-.093-.515-.022-.044-.048-.085-.072-.126-.026-.043-.052-.084-.069-.125-.051-.122-.037-.269-.022-.425.019-.198.037-.404-.076-.59-.1-.165-.268-.246-.431-.326-.148-.073-.289-.143-.346-.266a.653.653 0 0 1-.043-.172.743.743 0 0 0-.087-.273.804.804 0 0 0 .23-.234zm2.94 8.277c.151-.215.292-.445.42-.68.063-.116.13-.253.126-.405-.006-.214-.137-.366-.254-.5a.976.976 0 0 1-.265-.852l.026-.118c.022-.095.044-.193.043-.3-.006-.192-.126-.39-.319-.393a.371.371 0 0 0-.187.06c-.092.054-.176.122-.255.187-.06.049-.115.095-.172.134-.115.078-.197.11-.269.104a1.147 1.147 0 0 0-.215-.228 1.23 1.23 0 0 1-.162-.164c-.056-.072-.093-.161-.134-.258-.022-.05-.044-.102-.07-.152-.01-.122.028-.314.081-.453.037-.092.091-.18.149-.272.033-.056.07-.112.101-.171.11-.203.174-.422.235-.633.084-.288.16-.616-.018-.88a1.158 1.158 0 0 0-.082-.102.432.432 0 0 1-.09-.132c-.022-.065-.002-.146.02-.24.056-.235.098-.476.126-.717.013-.12.024-.26-.039-.384-.087-.175-.266-.24-.424-.297a1.746 1.746 0 0 1-.137-.054.766.766 0 0 1-.437-.607.89.89 0 0 0-.076-.262c-.077-.15-.264-.263-.431-.187a.384.384 0 0 0-.14.12c-.065.082-.114.171-.162.257a2.066 2.066 0 0 1-.107.178.554.554 0 0 1-.224.202c-.089-.048-.189-.07-.282-.093a1.064 1.064 0 0 1-.209-.061.983.983 0 0 1-.216-.149 2.023 2.023 0 0 0-.158-.118l-.009-.006c.004-.095.017-.182.028-.234.022-.098.063-.19.105-.291.026-.06.052-.12.076-.184a3.21 3.21 0 0 0 .14-.66c.04-.297.064-.633-.15-.867a1.389 1.389 0 0 0-.095-.09c-.045-.038-.09-.074-.11-.116-.03-.061-.023-.145-.016-.24a6.38 6.38 0 0 0 .018-.729c-.003-.12-.016-.26-.096-.375-.113-.158-.298-.197-.463-.23a1.776 1.776 0 0 1-.142-.033.767.767 0 0 1-.487-.435c-.013-.033-.026-.067-.037-.1a.852.852 0 0 0-.115-.247c-.098-.135-.3-.22-.453-.12a.377.377 0 0 0-.12.139c-.053.09-.088.185-.123.276-.026.069-.05.132-.08.193a.575.575 0 0 1-.19.234c-.095-.033-.197-.04-.293-.048a1.09 1.09 0 0 1-.216-.03 1.03 1.03 0 0 1-.237-.115 1.727 1.727 0 0 0-.174-.094c-.169-.077-.419-.106-.572.059-.21.224-.045.53.075.753.013.026.028.05.041.075.091.174.132.369.119.564a.132.132 0 0 0-.024-.01c-.358-.122-.73-.13-1.09-.137-.147-.004-.245.065-.254.173-.02.21.076.412.29.618.22.211.393.475.5.76.032.084.058.173.085.259.063.206.128.417.26.603.177.249.44.395.694.538.2.111.388.217.537.37.024.024.048.05.07.075.06.067.122.136.204.192.146.098.314.122.475.146.065.01.126.019.184.032.594.133 1.01.332 1.121.534-.001.062-.009.123-.022.184l-.022-.013c-.335-.174-.703-.24-1.059-.299-.142-.024-.25.028-.276.132-.05.204.013.42.195.655.187.241.318.527.381.828.019.087.032.178.044.267.032.213.063.432.167.635.139.273.376.456.605.634.182.142.352.275.476.446l.06.085c.05.076.1.154.174.22.13.118.292.168.45.215.062.018.12.037.177.059.411.162.648.364.722.618a1.333 1.333 0 0 1-.14.293l-.006-.007c-.228-.34-.533-.581-.83-.813-.04-.032-.12-.082-.205-.07a.182.182 0 0 0-.12.074c-.13.183-.163.428-.102.751a2.71 2.71 0 0 1-.008 1.043c-.02.099-.048.2-.074.3-.063.231-.126.472-.12.725.01.341.144.644.274.935.104.232.202.453.243.69l.016.117c.013.1.026.205.063.305.067.183.19.31.313.434.048.048.094.095.135.145.154.184.23.334.25.521a6.34 6.34 0 0 0-.42-.49c-.043-.046-.11-.1-.193-.102a.179.179 0 0 0-.13.054c-.157.16-.229.397-.218.728a2.67 2.67 0 0 1-.172 1.028c-.035.094-.08.191-.12.282-.098.22-.2.447-.234.698-.044.34.041.659.125.967.066.245.127.478.13.72l-.003.119c-.004.1-.007.206.013.31.037.19.14.337.24.478.042.056.079.11.112.165.168.282.211.743.11 1.118-.003 0-.004.002-.004.002v-.01c-.012-.408-.143-.776-.269-1.13-.017-.048-.057-.134-.137-.169a.176.176 0 0 0-.14-.002c-.208.086-.367.275-.486.583-.126.323-.32.627-.563.878-.07.072-.146.145-.222.213-.175.164-.359.332-.488.552-.174.293-.22.621-.265.937-.035.252-.069.49-.163.712-.015.038-.032.073-.048.108-.043.09-.087.186-.11.291-.04.192-.003.366.034.535.015.067.028.13.037.195.046.337-.206.837-.48 1.158h-.001l.003-.01c.124-.39.12-.779.119-1.156 0-.05-.011-.144-.074-.204a.179.179 0 0 0-.132-.048c-.224.011-.437.14-.65.388-.225.263-.508.486-.82.642a7.5 7.5 0 0 1-.28.128c-.22.096-.447.195-.642.358-.26.22-.412.514-.558.798-.117.227-.228.44-.39.62-.025.03-.053.058-.08.085-.071.073-.143.147-.2.238-.102.165-.125.343-.145.516-.01.069-.017.134-.03.197-.06.3-.135.493-.342.657v-.55a.5.5 0 0 0-.5-.5h-1.065c-.23 0-.3 0-.672-.077a2.925 2.925 0 0 1-.36-.102c-.173-.058-.323-.106-.519-.098-.205-.008-.355.04-.526.098-.107.035-.218.072-.363.102-.37.076-.44.076-.671.076h-1.078a.5.5 0 0 0-.5.501v.893c-.059-.039-.114-.08-.17-.119.105-.842-.256-1.824-.942-2.527-.315-.323-.702-.58-1.076-.826-.553-.366-1.077-.713-1.37-1.251a.118.118 0 0 0-.133-.06.122.122 0 0 0-.095.112c-.001.022-.027.544.013.813.041.27.132.52.228.759a5.96 5.96 0 0 1-.648-.2 2.707 2.707 0 0 1-.516-.266c.44-.776.468-1.763.076-2.647-.184-.412-.458-.787-.724-1.149-.393-.536-.765-1.043-.852-1.65a.12.12 0 0 0-.104-.101.118.118 0 0 0-.125.072c-.01.02-.215.501-.27.766a3.273 3.273 0 0 0-.049.791 6.157 6.157 0 0 1-.538-.412 2.716 2.716 0 0 1-.38-.412c.635-.585.97-1.48.896-2.415-.035-.45-.169-.894-.298-1.325-.19-.636-.372-1.24-.252-1.84a.121.121 0 0 0-.063-.132.118.118 0 0 0-.142.026c-.015.016-.37.4-.51.63a3.243 3.243 0 0 0-.309.73 6.366 6.366 0 0 1-.37-.57 2.636 2.636 0 0 1-.226-.532c.776-.357 1.418-1.17 1.646-2.101.107-.438.12-.904.132-1.351.018-.665.035-1.294.336-1.827a.124.124 0 0 0-.018-.144.12.12 0 0 0-.145-.02c-.018.01-.475.263-.68.44-.208.175-.371.385-.523.595a5.835 5.835 0 0 1-.172-.657 2.786 2.786 0 0 1-.048-.533c.84-.19 1.574-.798 1.975-1.644.193-.408.298-.86.402-1.297.152-.648.294-1.26.698-1.72.035-.042.039-.101.011-.146a.124.124 0 0 0-.137-.05c-.02.008-.518.162-.755.293-.24.132-.44.303-.632.478a5.96 5.96 0 0 1-.037-.678c.004-.206.028-.4.073-.588.105.013.212.02.32.02.681 0 1.368-.273 1.912-.774.313-.287.567-.647.81-.993.36-.512.699-.996 1.214-1.256a.123.123 0 0 0 .064-.132.118.118 0 0 0-.107-.096c-.02-.002-.513-.043-.766-.013-.252.03-.485.105-.711.189.059-.2.122-.403.201-.592.104-.247.236-.462.398-.655l.05-.06c.095-.115.273-.33.397-.397a.13.13 0 0 0 .063-.157.129.129 0 0 0-.145-.088 5.555 5.555 0 0 0-2.007.761c.117-.493.087-.952-.092-1.295a2.67 2.67 0 0 0-.226-.321.125.125 0 0 0-.126-.043.124.124 0 0 0-.09.097 2.665 2.665 0 0 1-.723 1.388 5.661 5.661 0 0 1-.403.358c-.14.117-.287.238-.42.373-.654.659-1.011 2.147-.48 3.437a5.962 5.962 0 0 0-.659.765c-.078-.538-.289-.982-.603-1.251a2.597 2.597 0 0 0-.348-.225.12.12 0 0 0-.132.008.123.123 0 0 0-.048.124c.113.55.057 1.138-.16 1.655-.071.175-.166.348-.255.513-.092.17-.187.347-.264.532-.458 1.093-.128 2.578.766 3.475a5.981 5.981 0 0 0-.415.762c-.183-.51-.481-.903-.842-1.102-.117-.065-.357-.141-.385-.15a.123.123 0 0 0-.128.035.127.127 0 0 0-.022.132 2.86 2.86 0 0 1 .176 1.653 5.873 5.873 0 0 1-.148.555c-.056.186-.115.379-.152.576-.226 1.148.442 2.63 1.496 3.322a6 6 0 0 0-.202 1.024c-.335-.427-.739-.707-1.144-.781-.131-.024-.385-.023-.413-.023-.048 0-.09.03-.111.073a.127.127 0 0 0 .02.132c.373.419.615.957.685 1.514.024.187.03.384.034.573.005.195.01.396.035.594.14 1.13 1.242 2.303 2.47 2.645.022.332.074.659.15.976-.458-.29-.934-.417-1.341-.352-.133.02-.37.107-.396.118a.123.123 0 0 0-.017.223c.49.271.9.696 1.152 1.197.085.169.155.353.224.529.07.182.14.37.231.548.5.994 1.709 1.683 2.897 1.683.09 0 .18-.004.269-.013.142.332.314.65.51.943-.529-.114-1.02-.067-1.379.133-.116.065-.309.23-.33.249a.121.121 0 0 0 .061.213 2.83 2.83 0 0 1 1.493.724c.139.13.267.277.393.418.127.146.26.297.407.434.589.551 1.272 1.032 2.77 1.032.694 0 1.566-.104 2.684-.353.203.113.381.255.483.433l.004-.002c.009.033.024.061.042.083l.067.088c-.326.176-.965.363-2.103.185-.404-.065-.546.076-.596.167-.074.136-.04.31.094.501-.553.215-1.47.336-2.853-.139a.11.11 0 0 0-.137.063.11.11 0 0 0 .054.141l1.418.68-.398.45a.113.113 0 0 0-.022.108.11.11 0 0 0 .081.073c.048.009.696.142 1.437.142.618 0 1.303-.092 1.757-.425a.253.253 0 0 0-.068-.44 1.977 1.977 0 0 1-.184-.076c.054.002.107.004.16.004 1.084 0 1.628-.427 1.89-.763.114.091.284.125.455.078l.203-.055.204.055c.052.015.104.02.156.02a.48.48 0 0 0 .3-.098c.26.336.805.763 1.884.763.054 0 .107-.002.163-.004-.06.026-.119.052-.183.077a.253.253 0 0 0-.069.44c.454.332 1.139.424 1.757.424.74 0 1.388-.131 1.436-.142a.109.109 0 0 0 .06-.18l-.398-.451 1.418-.68a.11.11 0 0 0 .053-.14.11.11 0 0 0-.136-.064c-1.383.475-2.3.355-2.853.14.135-.192.168-.366.094-.502-.05-.09-.192-.232-.596-.167-1.14.178-1.779-.01-2.105-.185l.067-.088a.295.295 0 0 0 .042-.083l.004.002a1.16 1.16 0 0 1 .437-.407c.255.128.53.177.792.177.513 0 .989-.179 1.226-.286a.913.913 0 0 0 .163-.1c.12-.088.422-.116.592-.103.108.008.211.036.32.065.065.017.134.036.204.05.239.049.483.045.722.043.32-.004.681-.028.926-.28.035-.035.063-.074.092-.111.043-.054.082-.106.13-.138.07-.044.165-.05.268-.057.263-.017.53-.047.793-.093.13-.022.277-.056.394-.152.165-.138.2-.334.231-.509.01-.054.019-.106.032-.154a.974.974 0 0 1 .577-.638c.087-.041.178-.084.26-.154.146-.125.227-.344.109-.494a.368.368 0 0 0-.163-.11c-.1-.038-.206-.06-.306-.083-.074-.017-.144-.032-.21-.052a.55.55 0 0 1-.249-.148c.034-.102.04-.21.045-.31.003-.082.007-.16.026-.23.022-.088.068-.175.118-.266.01-.017.019-.033.028-.052.083-.106.309-.226.487-.273.103-.027.21-.035.324-.044.066-.006.137-.011.207-.02.24-.034.472-.117.696-.2.302-.109.635-.252.78-.57.02-.047.035-.092.05-.136.022-.065.042-.128.077-.173.052-.065.14-.102.235-.143.243-.102.485-.22.719-.35.114-.066.244-.143.322-.275.109-.184.078-.383.05-.557a.968.968 0 0 1 .23-.861c.027-.03.055-.058.085-.087.068-.069.14-.14.194-.23.098-.166.102-.4-.06-.503a.365.365 0 0 0-.188-.05 1.988 1.988 0 0 0-.317.022c-.076.009-.146.018-.216.02a.543.543 0 0 1-.284-.057 1.1 1.1 0 0 0-.06-.307c-.023-.078-.045-.154-.052-.224a1.23 1.23 0 0 1 .023-.29c.012-.07.023-.143.028-.215.002-.017 0-.033 0-.05l.002.002c.076-.091.157-.165.207-.204.086-.067.18-.115.28-.17.06-.03.122-.062.183-.1.208-.124.387-.293.561-.456.234-.219.485-.483.495-.833a.914.914 0 0 0-.008-.145c-.005-.069-.011-.134.004-.188.022-.08.087-.148.16-.222.184-.19.36-.394.523-.605.08-.104.168-.229.189-.379.03-.211-.078-.382-.172-.533a.975.975 0 0 1-.126-.883 1.23 1.23 0 0 1 .044-.113c.037-.09.076-.184.089-.288.024-.19-.063-.406-.252-.44a.378.378 0 0 0-.194.028c-.1.04-.193.093-.283.145a2.19 2.19 0 0 1-.193.104.53.53 0 0 1-.283.058 1.199 1.199 0 0 0-.174-.257c-.052-.063-.102-.122-.135-.187a1.061 1.061 0 0 1-.086-.253.666.666 0 0 1 .054-.063c.072-.078.16-.142.25-.21.054-.04.111-.081.165-.127.185-.156.337-.351.483-.54.196-.253.402-.553.355-.9a1.459 1.459 0 0 0-.03-.142.579.579 0 0 1-.025-.187c.004-.085.06-.163.118-.249z" fill="#000"/>
        <path d="M61.265 2.865c.353-.145.737-.271 1.207-.401 1.716-.472 2.358-1.338 2.595-1.867.237.529.878 1.395 2.594 1.867.47.13.853.256 1.207.4 1.177.481 2.153 1.073 2.975 1.806l-2.916 3.527c-.002.001-.002.003-.002.003-1.184-.701-2.49-1.091-3.86-1.091-1.37 0-2.673.39-3.857 1.091 0-.002-.002-.002-.002-.003L58.29 4.67c.822-.733 1.796-1.325 2.975-1.805zm13.3 17.67c0 7.25-4.262 13.15-9.501 13.15-5.24 0-9.501-5.9-9.501-13.15 0-7.252 4.262-13.151 9.5-13.151 5.24 0 9.501 5.9 9.501 13.15zM60.97 8.345c-3.351 2.13-5.682 6.794-5.682 12.19 0 7.403 4.386 13.425 9.775 13.425s9.774-6.022 9.774-13.425c0-5.396-2.329-10.058-5.68-12.19l2.977-3.602a.139.139 0 0 0-.013-.19c-.866-.796-1.899-1.432-3.154-1.945a11.08 11.08 0 0 0-1.237-.412C65.397 1.558 65.208.18 65.203.122L65.2.112l-.004-.016c-.002-.004-.004-.008-.004-.012l-.005-.013-.008-.01c-.002-.004-.003-.008-.007-.01L65.162.04c-.002-.002-.004-.006-.008-.007L65.138.02l-.006-.003a.135.135 0 0 0-.185.052l-.002.001a.07.07 0 0 0-.01.02v.006a.064.064 0 0 0-.005.019l-.002.007c-.007.058-.196 1.437-2.53 2.077-.482.132-.874.264-1.237.412-1.255.512-2.286 1.149-3.154 1.945a.139.139 0 0 0-.013.19l2.977 3.598z" fill="#000"/>
        <path d="M61.903 39.057c.158.104.346.206.563.284.019.008.022.022.024.028.002.017-.007.024-.011.026-.755.553-2.294.365-2.83.278l.364-.414a.117.117 0 0 0 .026-.094.114.114 0 0 0-.061-.078l-.543-.26c.908.145 1.554.01 1.981-.17.076.08.236.231.46.382M62.32 38.838h-.349c-.274-.19-.435-.376-.438-.38-.158-.176-.195-.314-.163-.371.027-.052.139-.093.368-.056 1.19.186 1.883-.004 2.273-.226l.249.323c-.232.32-.765.766-1.94.71zM68.25 39.042a2.94 2.94 0 0 0 .459-.382c.427.182 1.073.316 1.98.17l-.542.26a.11.11 0 0 0-.06.079.105.105 0 0 0 .025.094l.365.414c-.537.087-2.076.275-2.83-.278-.005-.002-.014-.01-.012-.026.002-.006.006-.023.024-.028.217-.076.405-.18.563-.284M68.392 38.031c.23-.037.341.004.369.056.031.057-.006.195-.165.373a2.499 2.499 0 0 1-.437.378h-.353c-1.17.054-1.703-.39-1.935-.71l.248-.323c.389.224 1.081.414 2.273.226zM66.305 37.17c-.012-.021-.025-.043-.042-.066a1.004 1.004 0 0 0-.333-.285l-.09-.047a8.986 8.986 0 0 1 1.437-1.434.108.108 0 0 0 .017-.154.107.107 0 0 0-.154-.017c-.307.248-.592.503-.85.764-.134-.14-.473-.378-1.223-.378-.75 0-1.088.237-1.224.378a9.835 9.835 0 0 0-.85-.764.109.109 0 0 0-.153.017.11.11 0 0 0 .017.154 8.91 8.91 0 0 1 1.436 1.434c-.031.015-.06.032-.089.047a.987.987 0 0 0-.333.285c-.017.023-.03.045-.043.065-.36-.404-1.038-.603-1.44-.69a.282.282 0 0 1-.22-.275v-.963c0-.156.126-.282.281-.282h1.065c.235 0 .322 0 .716-.082.158-.031.28-.072.387-.11.157-.051.282-.094.457-.087.169-.007.291.036.45.088.108.035.23.076.387.11.393.08.481.08.717.08h1.064c.156 0 .282.127.282.283v.963a.282.282 0 0 1-.22.275c-.41.087-1.088.286-1.449.69z" fill="#FFF685"/>
        <path d="M76.51 10.684c.045-.065.082-.132.12-.197.046-.081.088-.16.142-.228.016-.02.037-.046.057-.056.04-.018.113.026.147.09.03.057.042.126.055.2a.977.977 0 0 0 .563.768 1.7 1.7 0 0 0 .152.06c.131.048.255.094.303.189.035.07.028.167.017.26a6.138 6.138 0 0 1-.122.698c-.026.107-.056.232-.013.356.028.085.083.15.133.206.024.028.046.054.065.08.124.185.059.455-.01.694-.059.2-.118.408-.218.59-.03.054-.063.106-.094.16a1.885 1.885 0 0 0-.167.308c-.022.057-.054.16-.076.273a.5.5 0 0 0-.113-.067c.097-.45.082-.936.069-1.33-.006-.164-.013-.348-.093-.515-.022-.045-.048-.085-.072-.124-.026-.043-.052-.084-.069-.125-.051-.122-.037-.269-.022-.425.019-.198.037-.406-.076-.59-.1-.165-.268-.247-.431-.326-.148-.073-.289-.143-.346-.266a.652.652 0 0 1-.043-.173.746.746 0 0 0-.087-.272.86.86 0 0 0 .23-.238zM73.308 6.092c.033-.07.06-.14.087-.211.033-.088.064-.171.107-.247.013-.022.03-.052.05-.063.039-.024.115.007.157.065.037.052.06.118.084.189a.985.985 0 0 0 .67.676c.052.014.107.025.159.037.137.027.266.053.328.142.046.065.051.162.055.255.01.234.002.471-.016.709-.01.111-.02.235.04.352.041.08.106.136.163.184.028.024.054.046.076.07.15.164.128.442.093.69a3.016 3.016 0 0 1-.128.615c-.02.058-.046.115-.07.171-.045.104-.093.213-.119.33a1.313 1.313 0 0 0-.028.195.552.552 0 0 0-.124-.013c.02-.443-.065-.902-.135-1.277-.03-.16-.063-.341-.168-.493a1.09 1.09 0 0 0-.091-.114.761.761 0 0 1-.087-.11c-.069-.114-.078-.26-.085-.417-.011-.2-.022-.406-.163-.573-.124-.149-.302-.204-.474-.26-.157-.05-.307-.096-.381-.211-.03-.045-.049-.104-.069-.166-.028-.083-.06-.178-.128-.258a.823.823 0 0 0 .197-.267zM73.642 10.798c-.066-.015-.135-.024-.2-.035-.144-.02-.28-.04-.385-.111-.059-.04-.109-.097-.163-.156l-.077-.084c-.17-.172-.382-.291-.587-.406-.243-.136-.474-.266-.622-.473-.111-.155-.167-.342-.228-.539-.028-.089-.055-.182-.089-.27a2.275 2.275 0 0 0-.555-.843c-.152-.145-.226-.28-.224-.41.007-.002.018-.002.031-.002.345.007.7.013 1.024.126.344.119.602.354.689.63.018.057.03.118.042.183.035.174.076.371.235.495.076.06.163.09.241.115.07.025.137.047.183.086.078.067.104.178.132.306.026.113.052.23.118.334.104.162.274.245.424.32.04.02.082.038.119.06.462.253.73.509.82.782l.055.165c.01.028.02.054.028.08l.011.039c-.265-.188-.674-.314-1.022-.392zM76.142 15.387c-.064-.024-.13-.045-.192-.065-.139-.043-.27-.081-.365-.169a.986.986 0 0 1-.139-.178l-.064-.095c-.143-.196-.334-.345-.519-.49-.22-.17-.427-.334-.544-.56-.087-.169-.115-.362-.145-.566a3.87 3.87 0 0 0-.048-.282 2.296 2.296 0 0 0-.422-.915c-.127-.167-.181-.31-.16-.438.012 0 .018 0 .03.004.34.057.691.118.995.278.322.169.542.442.587.728.009.057.013.12.016.187.01.176.019.379.16.525.064.07.148.113.22.15a.547.547 0 0 1 .168.114c.067.078.076.19.085.323.01.115.019.233.069.347.078.174.235.284.372.378l.11.078c.32.243.497.583.516.982l-.008.082-.005.068c-.15-.196-.383-.356-.717-.486zM76.403 20.982a3.03 3.03 0 0 0-.148-.158c-.107-.11-.211-.214-.26-.349a1.177 1.177 0 0 1-.05-.254 21.793 21.793 0 0 0-.016-.127c-.044-.267-.154-.512-.259-.747-.126-.284-.246-.552-.254-.845-.005-.219.052-.432.113-.659a5.44 5.44 0 0 0 .078-.311c.078-.372.08-.765.01-1.136-.045-.234-.032-.41.038-.537l.013.01c.281.22.572.45.78.759.222.332.305.722.22 1.045-.017.065-.04.131-.067.202-.068.193-.14.392-.08.603.03.1.086.184.134.258.044.067.089.132.105.2.03.117-.014.25-.06.387-.041.12-.084.246-.086.384-.004.211.085.387.172.558.022.045.045.09.065.134.167.364.304.753.198 1.15a.677.677 0 0 1-.02.066l-.011.037c-.06.17-.154.33-.27.46l-.004-.01c-.015-.033-.034-.066-.05-.098.057-.428-.02-.7-.29-1.022zM75.802 26.492c-.038-.063-.08-.122-.12-.18-.09-.126-.175-.245-.2-.386a1.178 1.178 0 0 1-.01-.258c.002-.042.002-.085.002-.128-.002-.27-.07-.529-.137-.78-.08-.298-.158-.582-.117-.875.03-.217.119-.42.215-.633.043-.097.087-.195.126-.295.135-.355.2-.742.189-1.121-.008-.24.033-.41.124-.523l.01.01c.243.264.495.535.65.873.167.364.188.76.054 1.067a3.026 3.026 0 0 1-.096.19c-.098.18-.202.363-.174.582.013.104.056.195.093.275.033.074.066.143.072.213.009.12-.054.243-.123.371-.059.114-.12.23-.144.366-.037.208.024.397.083.579l.045.141c.128.457.094.93-.083 1.286l-.049.063c-.064.084-.138.16-.222.227.041-.377-.022-.785-.188-1.064zM73.117 31.39c-.009-.072-.026-.142-.04-.21-.034-.151-.065-.294-.034-.435.017-.08.054-.158.093-.242.018-.038.037-.077.052-.116.105-.251.142-.515.177-.77.043-.309.086-.598.236-.852.11-.19.273-.34.446-.498.077-.07.155-.145.231-.223.263-.272.474-.603.611-.955.087-.223.19-.364.318-.433l.006.015c.12.338.244.687.256 1.058.01.399-.126.774-.369 1.002-.05.046-.104.09-.163.136-.16.126-.328.256-.389.467-.03.1-.026.2-.024.29.002.082.006.158-.016.224-.04.115-.145.203-.258.294a1.27 1.27 0 0 0-.275.278c-.115.176-.134.375-.152.564-.004.05-.01.098-.015.147a1.69 1.69 0 0 1-.637 1.126c-.03.019-.057.04-.085.058l-.08.054c-.076.05-.157.089-.24.122.222-.336.398-.763.351-1.1zM68.758 35.183c.015-.072.024-.145.031-.213.019-.154.037-.3.111-.422.043-.068.104-.132.167-.196l.089-.093c.181-.203.303-.44.422-.668.142-.275.276-.537.502-.726.168-.141.37-.228.585-.323.096-.04.194-.085.29-.134.339-.17.646-.412.892-.7.156-.181.3-.28.445-.302v.017c.002.358.005.73-.108 1.084-.12.38-.373.688-.677.824-.061.028-.128.05-.198.074-.195.065-.394.134-.522.314-.061.085-.091.182-.117.265a.684.684 0 0 1-.09.208c-.075.096-.204.143-.341.193a1.29 1.29 0 0 0-.354.17c-.168.129-.25.309-.33.483-.02.045-.04.091-.062.134-.145.284-.622.557-1.09.748.209-.197.292-.427.355-.737zM59.624 32.863c.363.241.738.49 1.036.794.587.602.926 1.448.89 2.18-.486-.422-.758-.884-1.004-1.304-.272-.46-.506-.855-.944-1.09a4.316 4.316 0 0 0-.906-.333l-.002-.004c-.122-.291-.236-.566-.281-.868a2.994 2.994 0 0 1-.018-.386c.325.413.783.716 1.229 1.011zM55.474 27.908c.02-.1.068-.239.114-.369.165.503.49.947.806 1.377.257.353.523.716.698 1.104.353.795.338 1.678-.038 2.378-.025-.171-.048-.344-.07-.527-.107-.861-.217-1.75-.813-2.42a4.263 4.263 0 0 0-.734-.626v-.002c-.014-.315-.026-.614.037-.915zM54.105 22.896a3.15 3.15 0 0 1 .233-.31c-.013.529.146 1.056.3 1.568.126.418.255.85.288 1.275.067.85-.23 1.66-.792 2.194-.002-.004-.004-.008-.007-.01l-.02-.033a21.3 21.3 0 0 1 .101-.475c.185-.833.378-1.694.043-2.522a4.342 4.342 0 0 0-.483-.837v-.002c.09-.3.177-.586.337-.848zM54.42 17.572c.078-.066.2-.146.317-.22-.177.499-.192 1.048-.207 1.583-.011.436-.024.887-.126 1.3-.207.849-.78 1.587-1.474 1.922l-.014-.073-.006-.03c.085-.148.174-.296.269-.454.446-.739.907-1.502.85-2.383a4.235 4.235 0 0 0-.199-.947l.002-.002c.183-.254.355-.495.589-.696zM55.827 12.441a3.1 3.1 0 0 1 .355-.152c-.274.453-.4.987-.52 1.509-.1.425-.201.865-.383 1.249-.36.757-1.003 1.308-1.744 1.498.002-.012.002-.02.002-.032l.004-.03c.105-.122.216-.247.326-.365.553-.61 1.123-1.244 1.247-2.144.045-.326.026-.65-.003-.967l.001-.002c.23-.213.447-.415.715-.564zM58.592 8.44c.09-.012.22-.012.344-.008-.392.299-.687.718-.974 1.125-.237.335-.481.684-.775.955-.567.522-1.304.774-2.003.694.005-.016.01-.037.018-.057l.006-.019c.127-.065.257-.128.385-.189.696-.334 1.414-.68 1.836-1.416.154-.27.252-.559.337-.844.28-.108.54-.208.826-.242zM54.904 7.93c.124-.127.266-.244.401-.357.143-.117.29-.24.422-.375a2.92 2.92 0 0 0 .728-1.253.704.704 0 0 1 .044.073c.254.488.091 1.113-.009 1.397a4.39 4.39 0 0 0-.533.457c-.66.668-1.157 1.78-1.331 2.984a5.156 5.156 0 0 0-.183.158c-.348-.954-.258-2.36.46-3.085zM52.006 13.414c.072-.175.164-.345.255-.51.093-.173.19-.35.267-.535.2-.48.274-1.015.216-1.533a.794.794 0 0 1 .086.063c.446.38.53 1.065.546 1.385-.134.215-.25.438-.345.66-.416.993-.492 2.281-.205 3.448a7.46 7.46 0 0 0-.14.192c-.788-.822-1.087-2.194-.68-3.17zM50.873 19.295c.037-.185.092-.37.146-.55.055-.188.115-.381.154-.578.1-.51.064-1.05-.097-1.546.037.015.072.03.096.045.513.284.736.937.815 1.247-.087.24-.157.479-.204.716-.194.987.01 2.322.517 3.432a6.267 6.267 0 0 0-.096.263c-.943-.657-1.537-1.99-1.331-3.029zM51.273 25.65c-.024-.187-.028-.382-.033-.57-.006-.194-.011-.396-.035-.597a3.086 3.086 0 0 0-.576-1.436c.04.002.078.005.105.011.576.108.99.659 1.163.928-.007.254.002.505.032.744.133 1.067.716 2.227 1.558 3.105-.002.078 0 .154.002.232-1.109-.345-2.088-1.4-2.216-2.416zM53.725 31.453c-.085-.17-.153-.35-.222-.526-.07-.182-.142-.37-.233-.551a3.1 3.1 0 0 0-1.022-1.162.855.855 0 0 1 .102-.024c.578-.093 1.153.288 1.405.483.078.24.17.475.278.69.49.98 1.384 1.847 2.45 2.38.029.083.058.166.09.25-1.135.069-2.372-.594-2.848-1.54zM57.996 36.169a5.93 5.93 0 0 1-.39-.416 5.614 5.614 0 0 0-.41-.436 3.066 3.066 0 0 0-1.36-.733c.033-.024.063-.045.087-.06.51-.287 1.181-.131 1.486-.035.156.2.323.386.5.551.948.888 2.546 1.483 4.271 1.59.048.03.1.053.157.066.158.033.36.085.565.161-3.149.648-4.12.045-4.906-.688z" fill="#FAA627"/>
        <path d="m65.328 38.166-.261-.07-.261.07c-.115.032-.235.006-.287-.06l-.533-.697c-.02-.026.003-.093.06-.17a.77.77 0 0 1 .262-.223c.139-.076.401-.199.624-.199h.243c.229-.011.506.119.653.197a.77.77 0 0 1 .26.222c.058.079.08.145.062.171l-.533.696c-.056.067-.176.093-.29.063z" fill="#FFF685"/>
        <path d="M73.88 34.1c.078.025.155.042.233.058.096.02.187.041.27.075.013.005.05.02.063.035.02.026-.007.111-.076.17-.057.049-.131.084-.207.121l-.12.06a1.198 1.198 0 0 0-.619.902c-.027.154-.051.287-.151.37-.073.062-.18.084-.285.103a7.107 7.107 0 0 1-.772.09c-.119.008-.254.016-.376.094-.084.052-.14.126-.19.19-.025.034-.05.066-.075.092-.18.187-.487.206-.759.21-.226.001-.46.005-.672-.04-.063-.013-.124-.03-.189-.046a1.854 1.854 0 0 0-.363-.072c-.137-.011-.54-.004-.748.144a.756.756 0 0 1-.12.077c-.235.105-.989.399-1.642.185.254-.108.517-.176.71-.219a.497.497 0 0 0 .306-.208c.08.011.167.017.263.017.752 0 1.944-.299 2.44-.457.17-.055.365-.117.526-.247a1.67 1.67 0 0 0 .118-.109c.041-.04.08-.08.123-.11.126-.09.287-.122.459-.157.215-.043.435-.086.607-.25.154-.15.21-.342.263-.528.05-.174.098-.338.224-.438.05-.039.115-.069.181-.1a.885.885 0 0 0 .278-.175.812.812 0 0 0 .3.164zM77.597 28.673c.081-.002.161-.013.239-.022.098-.013.189-.024.28-.02.012 0 .055.001.072.012.025.017.03.108-.017.186a.944.944 0 0 1-.158.182c-.031.031-.064.063-.094.096a1.197 1.197 0 0 0-.31.884l.023.172c.024.156.046.29-.02.401-.048.082-.143.14-.235.191-.226.126-.46.241-.698.342-.11.046-.235.098-.324.211-.061.076-.09.165-.115.243-.013.04-.026.078-.04.112-.108.237-.391.356-.649.449-.213.076-.431.156-.648.187-.063.01-.126.013-.192.019-.119.01-.243.018-.367.052-.063.017-.18.057-.3.12a.479.479 0 0 0-.009-.137c.476-.199.91-.525 1.296-.818.143-.108.305-.232.415-.407.03-.048.053-.096.076-.143.025-.052.05-.102.08-.145.086-.128.229-.211.38-.3.19-.11.384-.225.491-.438.096-.191.085-.392.076-.585-.01-.182-.019-.352.069-.488.035-.054.085-.102.138-.154.076-.074.156-.15.206-.258a.78.78 0 0 0 .335.056zM78.369 22.825c.01-.063.039-.128.066-.197a.86.86 0 0 0 .087-.317.853.853 0 0 0 .332-.082c.074-.033.142-.074.21-.115.086-.05.166-.096.249-.128.013-.006.052-.02.07-.017.032.006.07.088.06.178-.01.075-.041.15-.073.229a2.48 2.48 0 0 0-.048.126 1.2 1.2 0 0 0 .061.934c.028.052.06.102.09.15.082.133.155.248.138.377-.013.094-.078.183-.143.267a6.412 6.412 0 0 1-.509.588c-.083.085-.177.184-.215.323-.025.095-.016.188-.01.27.003.04.007.08.005.118-.007.26-.22.48-.418.668a3.418 3.418 0 0 1-.522.427c-.054.033-.112.061-.17.093-.106.055-.216.111-.317.19a1.5 1.5 0 0 0-.123.108.43.43 0 0 0-.07-.107c.315-.357.567-.796.774-1.158.089-.156.19-.334.222-.538.01-.056.011-.11.013-.162.004-.057.006-.113.017-.163.03-.152.13-.286.233-.425.13-.177.265-.358.28-.596.013-.213-.075-.393-.16-.568-.081-.16-.157-.313-.13-.473zM79.258 18.83c-.069.098-.147.21-.161.352-.01.097.013.188.031.268.01.04.02.08.024.117.035.258-.14.51-.309.725-.139.178-.281.364-.448.505-.048.04-.1.078-.154.119a2.396 2.396 0 0 0-.242.2.67.67 0 0 0-.093-.165c.182-.341.326-.72.443-1.028.063-.169.135-.36.133-.566 0-.056-.006-.11-.011-.162-.006-.057-.013-.111-.01-.163.006-.156.082-.302.163-.458.1-.195.206-.396.182-.633-.02-.214-.135-.377-.248-.535-.104-.148-.204-.287-.202-.449 0-.065.017-.132.035-.204a.88.88 0 0 0 .037-.321.814.814 0 0 0 .315-.14c.067-.044.13-.096.19-.146a1.62 1.62 0 0 1 .227-.165.164.164 0 0 1 .068-.028c.032 0 .083.074.085.167.002.076-.017.154-.035.238a1.67 1.67 0 0 0-.028.131 1.2 1.2 0 0 0 .208.912c.035.046.074.09.11.133.104.12.193.221.197.351.002.095-.046.193-.098.288-.122.223-.26.443-.41.657z" fill="#FAA627"/>
        <path d="M71.741 6.728c-.013-.026-.028-.052-.04-.078-.119-.221-.204-.398-.11-.498.07-.074.217-.057.32-.01.052.025.102.053.154.084.089.052.182.108.289.138.085.024.174.03.26.037.136.011.256.018.327.095.044.046.066.116.09.19.025.073.049.147.095.218.118.178.32.243.5.299.148.046.288.09.372.19.092.11.102.274.11.444.01.177.021.359.117.518.034.054.073.098.11.141.028.032.053.061.076.093.08.115.107.265.133.41.076.41.161.872.126 1.314 0 0-.002 0-.002.002a.356.356 0 0 0-.11.141c-.201-.232-.477-.403-.699-.523a2.776 2.776 0 0 0-.128-.065c-.137-.067-.266-.132-.337-.242-.046-.072-.066-.165-.09-.263-.034-.147-.07-.312-.204-.425-.078-.067-.172-.099-.254-.126a.551.551 0 0 1-.175-.082c-.097-.076-.126-.217-.156-.367a2.065 2.065 0 0 0-.048-.205c-.085-.272-.3-.51-.59-.668a1.297 1.297 0 0 0-.136-.763zM74.865 11.077c-.01-.026-.018-.054-.03-.083-.085-.236-.142-.423-.033-.509.08-.063.222-.024.319.04.048.03.092.066.138.105.08.065.163.134.267.178.082.037.167.056.25.074.135.032.252.058.311.143.037.052.048.127.061.203a.872.872 0 0 0 .061.228c.09.195.28.287.448.371.14.069.272.134.34.245.075.123.06.284.045.455-.017.176-.033.358.04.53a.965.965 0 0 0 .086.156c.022.036.044.07.061.104.061.127.067.279.072.427.015.41.03.874-.068 1.301-.006.002-.01.002-.015.002a.374.374 0 0 0-.228.18 1.492 1.492 0 0 0-.505-.664c-.037-.028-.078-.056-.117-.084-.125-.087-.244-.17-.296-.288a.827.827 0 0 1-.05-.274c-.01-.149-.024-.32-.139-.451-.066-.078-.155-.123-.231-.163-.063-.034-.122-.064-.163-.106-.083-.09-.093-.234-.1-.386-.004-.069-.007-.14-.018-.21-.045-.282-.22-.55-.484-.748.07-.254.065-.527-.022-.776zM77.087 15.923l.009-.098c.018-.227.042-.509.185-.548.093-.026.196.082.255.19.012.018.02.039.03.059a.32.32 0 0 0 .04.09c.005.008.01.018.014.029.044.106.09.213.163.308.057.076.127.137.194.197.11.096.204.18.222.3a.671.671 0 0 1-.031.249c-.02.082-.04.167-.043.26-.002.236.124.414.245.586.098.14.19.271.205.421.017.17-.068.33-.157.503-.09.171-.182.35-.19.557-.001.069.005.136.012.199.006.048.011.093.011.137.002.164-.06.325-.118.48-.11.29-.243.643-.408.959a.36.36 0 0 0-.181-.034.382.382 0 0 0-.263.15 2.903 2.903 0 0 0-.22-.616l-.069-.14c-.078-.153-.15-.296-.146-.448.002-.1.037-.204.074-.314.056-.163.113-.334.067-.518-.026-.109-.087-.196-.14-.274-.042-.065-.084-.126-.103-.191-.04-.14.017-.295.076-.46.026-.073.054-.147.072-.223.082-.31.034-.67-.122-.999.176-.228.287-.512.317-.81zM76.898 27.033c.09.027.124.174.116.297-.003.06-.014.126-.024.193a1.362 1.362 0 0 0-.026.349c.01.094.036.183.06.27.03.104.057.197.05.284 0 0-.008.064-.023.09a.923.923 0 0 1-.159.193c-.06.059-.124.118-.174.196-.127.199-.115.416-.103.628.009.17.018.33-.05.465-.076.15-.234.243-.4.342-.167.098-.34.198-.456.37a1.363 1.363 0 0 0-.096.174c-.02.042-.04.085-.065.122-.085.14-.224.243-.357.343-.383.29-.813.613-1.27.8-.007-.005-.013-.014-.022-.02a.37.37 0 0 0-.208-.072c.185-.258.306-.563.35-.891.008-.052.011-.104.017-.156.015-.169.03-.33.113-.459.055-.083.139-.152.23-.224.133-.11.272-.223.33-.403.036-.107.032-.213.03-.306-.001-.078-.005-.15.015-.217.041-.14.17-.241.31-.35.06-.045.122-.096.179-.148.233-.219.385-.547.428-.91a1.56 1.56 0 0 0 .696-.517c.009-.013.053-.067.063-.083.137-.18.305-.403.446-.36zM69.703 35.271c.024-.046.044-.094.066-.143.07-.156.137-.3.258-.393.08-.061.181-.098.29-.137.163-.06.33-.12.447-.27.068-.089.1-.19.127-.28.024-.074.045-.145.085-.198.084-.12.241-.171.406-.227.072-.024.146-.05.218-.081.293-.13.543-.39.704-.719a1.561 1.561 0 0 0 .91-.311c.029-.019.056-.038.086-.056v.002l.007-.006c.169-.107.35-.208.45-.133.076.055.06.204.011.319-.015.037-.035.074-.055.113a.426.426 0 0 0-.047.085c-.05.093-.1.19-.126.296-.024.092-.027.185-.033.274a.822.822 0 0 1-.046.284s-.04.067-.05.076c-.052.056-.13.091-.213.13a1.131 1.131 0 0 0-.23.128c-.185.147-.246.355-.305.557-.048.163-.093.32-.202.423-.122.117-.3.152-.49.19-.19.036-.385.075-.552.198-.056.04-.104.087-.148.132-.034.033-.067.066-.102.094-.126.102-.29.156-.45.206-.588.19-1.901.498-2.547.438l.002-.016c.318-.108 1.273-.47 1.529-.975zM58.436 33.296c.37.096.72.187 1.046.362.38.202.596.572.85.998.31.524.69 1.17 1.502 1.7-1.53-.16-2.914-.707-3.757-1.495-.653-.611-1.171-1.502-1.434-2.44.06.053.124.103.188.151.023.019.045.034.061.048.226.182.487.329.772.44.252.1.517.17.772.236zM54.489 28.42c.203.18.427.338.644.489.315.219.61.427.855.703.544.614.65 1.464.752 2.288l.04.318a1.11 1.11 0 0 1-.235-.253.131.131 0 0 0-.243.09 6.3 6.3 0 0 0 .084.356c-.927-.514-1.697-1.29-2.134-2.16-.402-.8-.582-1.816-.504-2.786l.124.208.041.065c.154.25.346.48.576.683zM53.449 23.725c.222.312.433.607.572.95.307.757.124 1.58-.054 2.376l-.048.215a.958.958 0 0 1-.103-.26.131.131 0 0 0-.128-.111.128.128 0 0 0-.13.11c-.026.157-.044.318-.055.48-.72-.817-1.213-1.843-1.331-2.79-.104-.837.04-1.787.39-2.637l.006-.002c0-.002-.002-.002-.002-.003.02-.05.042-.1.065-.15a13.015 13.015 0 0 0 .065.313c.057.284.162.564.31.833.132.238.29.46.443.676zM53.785 19.236c.054.803-.386 1.532-.814 2.238l-.124.206a.732.732 0 0 1 0-.191.132.132 0 0 0-.084-.147.131.131 0 0 0-.159.06 7.474 7.474 0 0 0-.174.345c-.42-1.021-.581-2.196-.409-3.074.174-.878.654-1.79 1.309-2.509-.011.078-.02.16-.028.24-.004.03-.005.055-.009.077-.033.29-.022.589.035.89.05.267.132.528.21.783.116.367.223.712.247 1.082zM58.313 6.923l-.046.058c-.178.21-.324.45-.437.718-.1.238-.172.485-.243.726-.102.347-.198.675-.37.976-.383.672-1.037.986-1.73 1.316l-.16.078a.857.857 0 0 1 .111-.2.128.128 0 0 0 0-.17.128.128 0 0 0-.167-.027 5.66 5.66 0 0 0-.357.237c.196-1.054.64-2.006 1.22-2.59.589-.595 1.431-1.057 2.314-1.28l-.135.158zM55.044 10.844a6.534 6.534 0 0 0-.075.23c-.01.028-.017.054-.025.074-.09.277-.14.572-.144.878a7.28 7.28 0 0 0 .048.81c.037.381.074.742.023 1.109-.114.824-.634 1.401-1.187 2.012l-.084.092a.84.84 0 0 1 .065-.202.128.128 0 0 0-.035-.165.129.129 0 0 0-.168.008 5.457 5.457 0 0 0-.44.462c-.225-1.07-.14-2.216.236-3.11.348-.83 1-1.627 1.786-2.198zM78.291 22.298a.626.626 0 0 1-.07.24 1.15 1.15 0 0 0-.084.248c-.038.234.058.429.15.618.076.152.147.297.137.449-.01.169-.118.316-.233.471-.115.156-.233.316-.274.52-.013.069-.017.134-.02.199a1.494 1.494 0 0 1-.011.137c-.024.161-.111.312-.193.457-.22.386-.47.818-.783 1.16a.396.396 0 0 0-.285.075 2.268 2.268 0 0 0-.106-1.102c-.051-.161-.101-.315-.074-.466a1.11 1.11 0 0 1 .123-.297c.08-.152.163-.311.148-.5-.01-.112-.054-.209-.093-.294a.729.729 0 0 1-.072-.204c-.017-.143.063-.29.148-.442.037-.067.076-.135.107-.208.13-.293.14-.655.038-1.006a1.57 1.57 0 0 0 .414-.668c.017-.05.03-.098.04-.146l.008-.03c.056-.22.123-.495.27-.512.095-.011.182.111.225.228.02.06.037.12.051.188.028.11.056.224.113.33.045.083.104.156.161.224.085.112.165.208.165.33z" fill="#FFF685"/>
        <path d="M23.784 12.35c-.105.07-.314.436-.533.267-.216-.169-.118-.154-.224.015-.105.169-.105.176-.224.252a.62.62 0 0 1-.38.099c-.153 0-.196-.015-.279-.197-.083-.184-.337.134-.252.535.084.4.519.24.674.181.154-.055.126-.148.35-.083.224.063.644-.106.898-.479.252-.371.076-.659-.03-.59zM40.876 30.42c.296-.402.229-.699-.062-1.085-.242-.323-.588-.609-.746-.616-.272-.015-1.32 1.696-1.314 1.711.028.07.739.364.866.651.285.654 1.048-.378 1.256-.66zM11.303 29.094c.083-.358-.315-.582-.506-.703-.189-.119-.575-.555-.8-.24-.223.318-.771 1.133-.953 1.49-.181.359.295.374.546.578.252.204.224.197.295.338.124.248.797-.524.896-.642.248-.294.475-.628.522-.82zM13.448 28.925c.09-.436-.505-.885-.8-1.054-.294-.169-.239-.154-.38 0-.14.154-.357.507-.532.716a4.298 4.298 0 0 0-.478.745c-.161.302.078.26.463.562.385.303.302.605.646.421.344-.18.99-.954 1.081-1.39zM4.024 20.885c-.1.027-.8 1.278-.911 1.588-.113.31.211.45.463.618.252.17.259.17.35.295.363.503.588.13.994-.488.176-.267.309-.55.324-.75.035-.443-.211-.668-.42-.83-.212-.159-.7-.461-.8-.433zM41.143 17.955c.118-.605-.091-.38-.197-.113-.105.267-.098.288-.181.548-.083.26-.189.328-.392 1.069-.204.74-.711 4.103-.647 5.075.065.971.526 1.222 1.02 1.218.495-.006 1.217-1.785 1.224-2.216.01-.429.028-.681-.196-.154s-.91.444-1.137-.295c-.224-.739.387-4.529.506-5.132z" fill="#ED1C24"/>
        <path d="M0 26.09c.035.846.224 1.53 1.276 2.162a3.182 3.182 0 0 0 2.26.141c1.066-.352 2.12-1.225 2.634-1.98a7.922 7.922 0 0 0 1.065-2.177c.287-.926.537-2.07.562-2.533l.043-.704c.015-.232.007-.464.028-.688.02-.225.294-1.46.07-1.377-.224.081-.827 1.533-.87 1.954-.042.421-.028.739-.042 1.167-.015.429.062.676.014 1.223-.05.548-.49 1.413-.925 1.856-.713.726-1.76 1.082-2.75 1.208-.329.043-.89-.014-1.106-.07-.624-.162-1.302-.501-1.487-1.167-.154-.555-.02-1.765.211-2.278.231-.514.315-.744.407-.955.091-.212.458-.92.295-.984-.163-.063-.963 1.7-1.096 1.997C.135 23.893 0 24.995 0 26.09zM13.758 20.86c-.189.098-.38.569-.616.743-.24.177-.989.611-1.15.802-.161.19-.161.225-.294.394-.117.148-.174.426-.36.803-.301.768-.918 1.188-1.503 1.526-.11.065-1.266.679-1.307.736-.07.099-.21.409-.027.45.409.094 1.708-.35 2.075-.618.42-.31.742-1.44.98-1.773.24-.33.506-.555.743-.646.24-.09.632-.345.813-.577.181-.232.378-.716.49-.885.114-.169.345-1.054.156-.956zM38.118 14.03c.296-.403.23-.7-.061-1.086-.243-.323-.59-.608-.747-.616-.272-.015-1.32 1.697-1.314 1.711.028.07.739.364.866.652.284.653 1.048-.38 1.256-.66zM16.297 15.757c-.12.107-.624 1.308-.687 1.533-.063.224-.161.57-.224.885-.19.943-.178 1.995-.35 2.938-.083.456-.126.78-.154.956-.028.176-.252.998-.028.716.224-.28.511-1.11.687-1.533.176-.421.33-1.377.38-1.813.048-.436.113-.626.14-.971.049-.583.1-1.355.252-1.912.04-.154.104-.907-.016-.8zM10.954 16.57c-.114.063-.47 1.047-.604 1.435-.133.386-.26 1.14-.365 1.715-.105.577-.168 1.392-.196 1.856-.028.463-.105.716-.14.885-.036.169-.408 1.046-.015.688.392-.358.94-2.474 1.051-3.107.113-.632.14-1.427.196-1.87a9.14 9.14 0 0 1 .141-.9c.05-.217.078-.26.098-.409.022-.146-.055-.356-.166-.293zM47.884 9.864c-.857.575-1.41.998-2.372 1.542-1.3.733-2.621 1.481-3.96 2.144-.666.33-2.6 1.44-3.085 2.08-.484.64-.637.811-.996 1.574-.36.763-.802 2.277-.969 2.91-.29 1.112-.564 1.645-1.627 2.25-.926.527-2.577 1.01-3.828 1.25-1.254.242-4.205.336-5.245.253-1.04-.082-1.457-.217-1.851-.548-.395-.33-.237-.887-.365-.872-.128.017-.218.848-.266 1.097-.049.248-.14.542-.084 1.14.056.595.944.855 1.655.983.711.128 2.77.126 4.404-.084 1.635-.211 4.379-.935 5.68-2.206.093-.091 1.205-1.453 1.22-1.435.044.058-.146.794-.169 1.082-.02.288-.05.618-.098 1.153-.05.534-.09 1.447.491 1.982.581.534 1.174-.134 1.416-.59.152-.286.467-.993.56-1.437.044-.217.01-.38-.07-.377-.134.004-.336 1.121-1.197.3-.217-.298-.311-.658-.317-1.072-.018-1.314.352-2.952.611-4.127.128-.576.304-1.251.484-1.806.14-.436.259-.555.757-.913s2.553-1.526 3.295-1.954c1.823-1.053 3.864-2.057 5.581-3.205.175-.117.402-.396.541-.661.14-.265.206-.724-.196-.453zM17.685 20.143c-.042-.113-.14-.182-.251.028-.639 1.199-1.12 2.047-1.572 3.374-.235.692-.405 1.9-.31 2.63.067.504.299 1.267.632 1.63.613.667 1.803.814 2.636.535a4.626 4.626 0 0 0 2.786-2.464c.282-.588.487-1.054.637-1.646.158-.624.528-1.895-.11-2.428a5.596 5.596 0 0 0-.34-.26c-.283-.195-.531-.38-.507-.66.015-.177.143-.346.228-.563.063-.163.16-.367.237-.506.103-.192.072-.188.264-.078.199.113.463.261.808.094.301-.146.54-.466.712-.8.165-.319.267-.675.295-.981.028-.295-.172-.902-.426-.863-.254.039-.265.627-.531.579-.267-.049-.38-.084-.506-.492s-.042-1.455.043-1.841c.083-.386.07-.295.083-.45.015-.153-.098-.415-.196-.21-.135.28-.363 1.098-.437 1.438-.105.475-.163 1.102-.235 1.562-.085.546-.082.95-.157 1.48-.067.467-.34 1.068-.613 1.64-.274.57-.5 1.119-.472 1.525.05.713.613.858 1.062 1.049.458.193.75.425.124 1.314-.823 1.17-2.216 1.594-3.219 1.59-1.033-.005-1.727-.343-2.055-1.404-.087-.282-.067-.865.074-1.467.178-.759.511-1.551.67-1.88.282-.575.689-1.362.646-1.475z" fill="#ED1C24"/>
    </g>
    <defs>
        <clipPath id="aj5xx06tha">
            <path fill="#fff" d="M0 0h80v40H0z"/>
        </clipPath>
    </defs>
</svg>
