<svg width="138" height="80" viewBox="0 0 138 80" fill="none" xmlns="http://www.w3.org/2000/svg">
<path d="M100.849 31.4299C101.638 31.6842 102.501 31.7011 103.322 31.5378C106.762 30.8536 118.589 29.0421 116.534 36.9841C116.086 38.5599 109.159 47.3844 119.024 50.6057C119.747 50.8447 120.512 50.9752 121.285 50.9916C124.322 51.0458 130.341 50.4244 132.86 48.2023C135.903 45.5181 132.579 46.791 132.579 46.791C132.579 46.791 121.01 51.1657 116.924 46.5244C116.469 46.008 116.179 45.258 116.097 44.6123C115.953 43.4928 116.526 42.0134 117.28 40.7255C118.3 38.9825 123.196 31.1418 112.565 28.8577C110.116 28.3523 106.559 27.8983 101.973 29.5716C99.2975 30.5476 99.8901 31.1213 100.849 31.4299Z" fill="#E6E8E8"/>
<path d="M103.216 28.5029L100.137 29.5015C99.0738 29.8462 98.5346 30.8724 98.9324 31.7934L99.085 32.1468C99.4829 33.0679 100.667 33.5352 101.73 33.1904L104.809 32.1918C105.872 31.8471 106.411 30.8209 106.013 29.8998L105.861 29.5464C105.463 28.6254 104.279 28.1581 103.216 28.5029Z" fill="#8B8C8C"/>
<path d="M84.3149 31.3925L74.1599 34.6859C73.6284 34.8583 73.3588 35.3714 73.5577 35.8319L73.5977 35.9245C73.7966 36.3851 74.3887 36.6187 74.9202 36.4463L85.0753 33.1529C85.6067 32.9805 85.8763 32.4674 85.6774 32.0069L85.6374 31.9143C85.4385 31.4537 84.8464 31.2201 84.3149 31.3925Z" fill="#8B8C8C"/>
<path d="M87.1492 37.9545L76.9941 41.248C76.4626 41.4204 76.193 41.9334 76.392 42.394L76.432 42.4866C76.6309 42.9471 77.223 43.1808 77.7544 43.0084L87.9095 39.7149C88.441 39.5426 88.7106 39.0295 88.5117 38.5689L88.4717 38.4763C88.2728 38.0158 87.6807 37.7822 87.1492 37.9545Z" fill="#8B8C8C"/>
<path d="M96.5249 26.9143L88.2944 29.5835C87.2315 29.9283 86.6923 30.9544 87.0901 31.8755L89.9002 38.3817C90.298 39.3028 91.4822 39.77 92.5451 39.4253L100.776 36.756C101.839 36.4113 102.378 35.3851 101.98 34.464L99.1699 27.9579C98.772 27.0368 97.5879 26.5696 96.5249 26.9143Z" fill="#E6E8E8"/>
<path d="M89.1447 28.6212L80.9142 31.2905C79.8513 31.6352 79.3121 32.6613 79.7099 33.5824L83.0624 41.3445C83.4602 42.2656 84.6444 42.7329 85.7073 42.3881L93.9378 39.7189C95.0007 39.3741 95.5399 38.348 95.1421 37.4269L91.7896 29.6648C91.3918 28.7437 90.2076 28.2765 89.1447 28.6212Z" fill="#E6E8E8"/>
<path d="M90.4331 27.0459L90.3686 27.0668C89.66 27.2966 89.3005 27.9807 89.5657 28.5948L94.2622 39.4686C94.5274 40.0827 95.3168 40.3942 96.0255 40.1644L96.09 40.1434C96.7986 39.9136 97.1581 39.2295 96.8929 38.6155L92.1964 27.7416C91.9312 27.1275 91.1418 26.816 90.4331 27.0459Z" fill="#8B8C8C"/>
<path d="M6.50926 33.9982C6.50926 33.9982 23.0389 29.9729 20.639 39.2469C20.2223 40.7143 14.2231 48.27 21.369 51.8977C22.9034 52.6766 24.6742 53.0217 26.4524 53.0136C29.6405 52.9992 34.6948 52.4675 36.9654 50.4648C40.0084 47.7805 36.684 49.0534 36.684 49.0534C36.684 49.0534 27.1908 52.4373 22.3069 49.7399C20.6392 48.8189 19.8833 47.0357 20.3362 45.3675C20.5677 44.5389 20.9201 43.7393 21.3851 42.9879C22.4472 41.2641 27.3015 33.4042 16.6703 31.1201C14.2213 30.6147 10.6643 30.1607 6.07792 31.8341C1.4915 33.5074 6.50926 33.9982 6.50926 33.9982Z" fill="#E6E8E8"/>
<path d="M39.1881 46.9782L36.1089 47.9768C35.0459 48.3215 34.5068 49.3477 34.9046 50.2688L35.0572 50.6222C35.455 51.5433 36.6392 52.0105 37.7021 51.6658L40.7814 50.6671C41.8443 50.3224 42.3835 49.2962 41.9857 48.3752L41.833 48.0217C41.4352 47.1007 40.251 46.6334 39.1881 46.9782Z" fill="#8B8C8C"/>
<path d="M44.3904 42.5881L39.8269 44.0681C38.764 44.4129 38.2248 45.439 38.6226 46.3601L40.8231 51.4551C41.2209 52.3761 42.4051 52.8434 43.468 52.4987L48.0316 51.0186C49.0945 50.6739 49.6337 49.6477 49.2359 48.7267L47.0354 43.6317C46.6376 42.7106 45.4534 42.2434 44.3904 42.5881Z" fill="#E6E8E8"/>
<path d="M51.9878 38.6655L45.1822 40.8726C44.1193 41.2173 43.5801 42.2435 43.9779 43.1646L47.3304 50.9267C47.7282 51.8478 48.9124 52.315 49.9753 51.9703L56.7809 49.7631C57.8438 49.4184 58.383 48.3923 57.9852 47.4712L54.6327 39.7091C54.2349 38.788 53.0507 38.3207 51.9878 38.6655Z" fill="#E6E8E8"/>
<path d="M53.4292 37.058L53.3647 37.0789C52.6561 37.3087 52.2966 37.9928 52.5618 38.6069L57.2583 49.4807C57.5235 50.0948 58.3129 50.4063 59.0216 50.1765L59.0861 50.1555C59.7947 49.9257 60.1542 49.2416 59.889 48.6276L55.1925 37.7537C54.9273 37.1396 54.1379 36.8282 53.4292 37.058Z" fill="#8B8C8C"/>
<path d="M70.8075 30.1304C70.5624 30.1068 70.3374 30.0018 70.1799 29.8374C70.0224 29.673 69.9447 29.462 69.963 29.2489L70.4708 21.2118C70.5011 20.7317 70.969 20.3669 71.4999 20.4094L72.2397 20.4687C72.7706 20.5112 73.1507 20.9436 73.0765 21.4203L71.8287 29.3981C71.8 29.6106 71.6778 29.8053 71.4876 29.9417C71.2974 30.0781 71.0538 30.1457 70.8075 30.1304Z" fill="#E6E8E8"/>
<path d="M66.423 30.8234C66.3467 30.8428 66.2668 30.849 66.1878 30.8417C66.1089 30.8343 66.0323 30.8136 65.9626 30.7806C65.8928 30.7476 65.8313 30.703 65.7814 30.6494C65.7316 30.5958 65.6944 30.5342 65.672 30.4682L63.8587 25.4686C63.8059 25.3265 63.8204 25.172 63.899 25.039C63.9776 24.9061 64.1138 24.8056 64.2777 24.7596L64.7472 24.6369C64.8278 24.6165 64.9124 24.6108 64.9956 24.6202C65.0788 24.6295 65.1589 24.6538 65.2307 24.6913C65.3026 24.7288 65.3647 24.7789 65.4131 24.8383C65.4615 24.8977 65.4952 24.9651 65.5121 25.0363L66.856 30.1587C66.8935 30.2964 66.8697 30.4412 66.7895 30.5644C66.7092 30.6876 66.5784 30.7801 66.423 30.8234Z" fill="#E6E8E8"/>
<path d="M63.9761 33.7065C63.6512 34.0554 62.9977 34.0512 62.4947 33.6971L53.5644 27.4097C53.031 27.0342 52.8736 26.4125 53.2183 26.0427L53.6987 25.527C54.0434 25.157 54.7513 25.1874 55.2561 25.5937L63.706 32.3968C64.1819 32.7799 64.301 33.3577 63.9761 33.7065Z" fill="#E6E8E8"/>
<path d="M68.104 49.946C68.334 50.023 68.5205 50.1744 68.6244 50.3682C68.7282 50.562 68.7412 50.7832 68.6607 50.9851L65.801 58.6431C65.6302 59.1006 65.0704 59.3495 64.5695 59.1912L63.8714 58.9702C63.3706 58.8116 63.1303 58.3092 63.3428 57.865L66.9005 50.428C66.9908 50.2288 67.1664 50.0674 67.3906 49.9776C67.6148 49.8878 67.8704 49.8765 68.104 49.946Z" fill="#E6E8E8"/>
<path d="M72.5474 50.2464C72.6268 50.2445 72.7059 50.2562 72.7801 50.2808C72.8543 50.3054 72.9222 50.3424 72.9799 50.3897C73.0376 50.437 73.084 50.4937 73.1164 50.5566C73.1488 50.6195 73.1666 50.6872 73.1688 50.7561L73.4485 55.9911C73.4576 56.1403 73.398 56.2865 73.2829 56.3976C73.1678 56.5087 73.0065 56.5758 72.8344 56.584L72.3442 56.5987C72.2603 56.6006 72.1769 56.5874 72.0992 56.5599C72.0215 56.5324 71.9512 56.4913 71.8928 56.4391C71.8344 56.3869 71.7891 56.3247 71.7597 56.2566C71.7304 56.1885 71.7177 56.1158 71.7225 56.0432L71.933 50.7933C71.9373 50.652 72.003 50.5172 72.1168 50.4158C72.2307 50.3145 72.3844 50.254 72.5474 50.2464Z" fill="#E6E8E8"/>
<path d="M75.7628 48.0005C76.1798 47.7351 76.8103 47.8837 77.1922 48.3374L83.9734 56.3924C84.3785 56.8736 84.3475 57.5092 83.9049 57.7907L83.2884 58.1829C82.8462 58.4644 82.1706 58.2784 81.8024 57.7738L75.6373 49.3262C75.2907 48.8507 75.3458 48.2658 75.7628 48.0005Z" fill="#E6E8E8"/>
</svg>
