<svg width="218" height="215" viewBox="0 0 218 215" fill="none" xmlns="http://www.w3.org/2000/svg">
    <path opacity=".5" d="M52.866 30.573C43.59 45.076 43.814 55.95 36.182 71.382 24.632 94.736-3.405 101.863.342 127.648 3.634 150.3 25.28 153.23 40.507 170.312c14.932 16.751 15.232 38.796 37.076 43.9 21.385 4.997 30.926-15.151 51.906-21.641 24.644-7.623 46.569 5.809 64.883-12.366 17.879-17.742 7.611-38.594 13.595-63.068 3.616-14.791 11.177-22.544 9.887-37.717-2.698-31.733-37.666-32.404-61.793-53.175-10.378-8.933-13.787-17.98-26.572-22.877-13.521-5.18-23.088-3.743-37.075 0C74.308 8.213 62.142 16.07 52.866 30.573z" fill="#F2F4F9"/>
    <path d="m24 38 2.828 5.172L32 46l-5.172 2.828L24 54l-2.828-5.172L16 46l5.172-2.828L24 38z" fill="#FCF18F"/>
    <path d="m188 44 3.182 5.818L197 53l-5.818 3.182L188 62l-3.182-5.818L179 53l5.818-3.182L188 44z" fill="#F19B99"/>
    <path d="m32 184 2.121 3.879L38 190l-3.879 2.121L32 196l-2.121-3.879L26 190l3.879-2.121L32 184z" fill="#A4D4FA"/>
    <rect x="66" y="76.856" width="101.927" height="79.469" rx=".698" fill="#D9D9D9"/>
    <path fill="#fff" d="m74.293 65.523 83.396-3.525 2.4 56.81-83.395 3.525z"/>
    <path d="M66 150.791V81.702c0-.385.313-.698.698-.698h34.153c.219 0 .425.103.557.278l4.39 5.82a.698.698 0 0 0 .557.278h60.874c.385 0 .698.313.698.699v62.712a.699.699 0 0 1-.698.698H66.699a.698.698 0 0 1-.699-.698z" fill="#394348" fill-opacity=".12"/>
    <path d="M66 155.627V86.538c0-.385.313-.698.698-.698h30.546c.232 0 .448.115.578.306l3.904 5.764c.13.191.346.306.578.306h64.925c.385 0 .698.313.698.699v62.712a.699.699 0 0 1-.698.698H66.699a.698.698 0 0 1-.699-.698z" fill="#D3D9DD"/>
</svg>
