<svg xmlns="http://www.w3.org/2000/svg" width="41" height="40" viewBox="0 0 41 40" fill="none">
  <path d="M33.71 9.56522H26.7535V6.95652H32.8404C33.071 6.95652 33.2922 6.86491 33.4553 6.70183C33.6184 6.53876 33.71 6.31758 33.71 6.08696V0.869565C33.71 0.638942 33.6184 0.417765 33.4553 0.25469C33.2922 0.0916146 33.071 0 32.8404 0H25.8839C25.6533 0 25.4321 0.0916146 25.269 0.25469C25.1059 0.417765 25.0143 0.638942 25.0143 0.869565V9.56522H8.49259C6.41769 9.56752 4.42843 10.3928 2.96125 11.86C1.49408 13.3271 0.668806 15.3164 0.666504 17.3913V29.5652C0.667263 30.2569 0.942351 30.9199 1.43141 31.409C1.92047 31.8981 2.58356 32.1732 3.2752 32.1739H16.3187V33.913C16.3192 34.3741 16.5026 34.8162 16.8286 35.1422C17.1547 35.4682 17.5967 35.6516 18.0578 35.6522V39.1304C18.0578 39.3611 18.1494 39.5822 18.3125 39.7453C18.4756 39.9084 18.6968 40 18.9274 40H22.4056C22.6363 40 22.8574 39.9084 23.0205 39.7453C23.1836 39.5822 23.2752 39.3611 23.2752 39.1304V35.6522C23.7363 35.6516 24.1783 35.4682 24.5044 35.1422C24.8304 34.8162 25.0138 34.3741 25.0143 33.913V32.1739H38.0578C38.7494 32.1732 39.4125 31.8981 39.9016 31.409C40.3907 30.9199 40.6657 30.2569 40.6665 29.5652V16.5217C40.6644 14.6774 39.9308 12.9092 38.6266 11.6051C37.3225 10.3009 35.5543 9.56733 33.71 9.56522ZM26.7535 1.73913H31.9708V5.21739H26.7535V1.73913ZM25.8839 18.2609C26.2279 18.2609 26.5641 18.3629 26.8501 18.554C27.1361 18.7451 27.359 19.0167 27.4906 19.3345C27.6223 19.6522 27.6567 20.0019 27.5896 20.3393C27.5225 20.6766 27.3569 20.9865 27.1136 21.2297C26.8704 21.473 26.5605 21.6386 26.2232 21.7057C25.8858 21.7728 25.5361 21.7384 25.2184 21.6067C24.9006 21.4751 24.629 21.2522 24.4379 20.9662C24.2468 20.6802 24.1448 20.344 24.1448 20C24.1453 19.5389 24.3287 19.0969 24.6547 18.7708C24.9808 18.4448 25.4228 18.2614 25.8839 18.2609ZM14.5795 30.4348H3.2752C3.04465 30.4346 2.8236 30.3429 2.66058 30.1798C2.49755 30.0168 2.40586 29.7958 2.40563 29.5652V17.3913C2.40563 15.7769 3.04694 14.2287 4.18846 13.0872C5.32999 11.9457 6.87823 11.3043 8.49259 11.3043C10.107 11.3043 11.6552 11.9457 12.7967 13.0872C13.9382 14.2287 14.5795 15.7769 14.5795 17.3913V30.4348ZM21.5361 38.2609H19.7969V35.6522H21.5361V38.2609ZM22.4056 33.913H18.0578V32.1739H23.2752L23.2761 33.913H22.4056ZM38.9274 29.5652C38.9271 29.7958 38.8355 30.0168 38.6724 30.1798C38.5094 30.3429 38.2884 30.4346 38.0578 30.4348H16.3187V17.3913C16.3184 16.2231 16.0561 15.0698 15.5512 14.0164C15.0462 12.9629 14.3113 12.0362 13.4008 11.3043H25.0143V16.6452C24.1946 16.8569 23.4803 17.3602 23.0051 18.0609C22.53 18.7616 22.3267 19.6115 22.4334 20.4513C22.54 21.2911 22.9493 22.0632 23.5846 22.6229C24.2198 23.1825 25.0373 23.4913 25.8839 23.4913C26.7305 23.4913 27.548 23.1825 28.1832 22.6229C28.8185 22.0632 29.2278 21.2911 29.3344 20.4513C29.4411 19.6115 29.2378 18.7616 28.7627 18.0609C28.2875 17.3602 27.5732 16.8569 26.7535 16.6452V11.3043H33.71C35.0933 11.3059 36.4194 11.856 37.3976 12.8342C38.3757 13.8123 38.9259 15.1385 38.9274 16.5217V29.5652ZM11.9709 21.7391H5.01433C4.78371 21.7391 4.56253 21.8307 4.39945 21.9938C4.23638 22.1569 4.14476 22.3781 4.14476 22.6087V25.2174C4.14476 25.448 4.23638 25.6692 4.39945 25.8323C4.56253 25.9953 4.78371 26.087 5.01433 26.087H11.9709C12.2015 26.087 12.4227 25.9953 12.5857 25.8323C12.7488 25.6692 12.8404 25.448 12.8404 25.2174V22.6087C12.8404 22.3781 12.7488 22.1569 12.5857 21.9938C12.4227 21.8307 12.2015 21.7391 11.9709 21.7391ZM11.1013 24.3478H5.88389V23.4783H11.1013V24.3478Z" fill="#007A7F"/>
</svg>