<svg xmlns="http://www.w3.org/2000/svg" width="24" height="25" viewBox="0 0 24 25" fill="none">
  <g clip-path="url(#clip0_568_13632)">
    <path d="M20.8535 5.6465L15.8535 0.646484C15.7598 0.552734 15.6328 0.5 15.5 0.5H4.99997C3.89695 0.5 3 1.39695 3 2.50002V22.5C3 23.603 3.89695 24.5 5.00002 24.5H19C20.103 24.5 21 23.603 21 22.5V5.99998C21 5.86719 20.9473 5.74025 20.8535 5.6465ZM16 2.20705L19.293 5.50002H17C16.4487 5.50002 16 5.05128 16 4.50003V2.20705ZM20 22.5C20 23.0512 19.5513 23.5 19 23.5H5.00002C4.44877 23.5 4.00003 23.0512 4.00003 22.5V2.50002C4.00003 1.94877 4.44877 1.50003 5.00002 1.50003H15V4.50003C15 5.60305 15.897 6.5 17 6.5H20V22.5Z" fill="#007A7F"/>
    <path d="M14.5493 15.1782C14.0864 14.814 13.6465 14.4395 13.3535 14.1465C12.9727 13.7657 12.6333 13.3965 12.3384 13.045C12.7984 11.6236 13 10.8907 13 10.5C13 8.84036 12.4004 8.5 11.5 8.5C10.8159 8.5 10 8.85545 10 10.5479C10 11.294 10.4087 12.1997 11.2188 13.2525C11.0205 13.8574 10.7876 14.5552 10.5259 15.3418C10.3999 15.7193 10.2632 16.0689 10.1187 16.3921C10.001 16.4444 9.88673 16.4976 9.77639 16.5528C9.37894 16.7515 9.0015 16.9302 8.65139 17.0962C7.05469 17.8521 6 18.3521 6 19.3394C6 20.0562 6.77883 20.5 7.5 20.5C8.42967 20.5 9.83348 19.2583 10.8589 17.1665C11.9233 16.7466 13.2466 16.4355 14.291 16.2407C15.1279 16.8842 16.0522 17.5 16.5 17.5C17.7397 17.5 18 16.7832 18 16.1821C18 15 16.6494 15 16 15C15.7983 15 15.2573 15.0596 14.5493 15.1782ZM7.5 19.5C7.21434 19.5 7.02098 19.3653 6.99998 19.3394C6.99998 18.9849 8.05711 18.4839 9.07959 17.9995C9.14452 17.9688 9.21047 17.938 9.27736 17.9063C8.52638 18.9952 7.78369 19.5 7.5 19.5ZM11 10.5479C11 9.50003 11.3252 9.50003 11.5 9.50003C11.8536 9.50003 12 9.50003 12 10.5C12 10.711 11.8594 11.2383 11.6021 12.0616C11.2095 11.4571 11 10.939 11 10.5479ZM11.3833 15.9219C11.4146 15.835 11.4449 15.7471 11.4742 15.6582C11.6597 15.1016 11.8267 14.6016 11.9756 14.1514C12.1831 14.3799 12.4068 14.6138 12.6465 14.8535C12.7403 14.9473 12.9727 15.1582 13.2823 15.4224C12.666 15.5567 12.0103 15.7232 11.3833 15.9219ZM17 16.1822C17 16.4068 17 16.5 16.5361 16.503C16.3999 16.4737 16.085 16.2881 15.6963 16.0235C15.8374 16.0079 15.9414 16 16 16C16.7388 16 16.9483 16.0723 17 16.1822Z" fill="#007A7F"/>
  </g>
  <defs>
    <clipPath id="clip0_568_13632">
      <rect width="24" height="24" fill="white" transform="translate(0 0.5)"/>
    </clipPath>
  </defs>
</svg>