<svg width="240" height="207" viewBox="0 0 240 207" fill="none" xmlns="http://www.w3.org/2000/svg">
<path d="M57.1133 36.1286C57.1133 36.1286 88.2094 59.7264 135.483 15.6029C177.467 -23.5821 211.748 38.243 211.988 67.85C212.299 106.202 170.004 136.89 190.529 162.081C211.055 187.272 149.824 228.87 116.824 192.869C75.7727 148.086 64.6515 184.472 41.2526 184.472C24.4588 184.472 -10.0203 142.744 13.2631 111.7C32.8558 85.5765 22.1703 76.9067 16.9957 67.85C9.53123 54.7882 27.2579 19.335 57.1133 36.1286Z" fill="#2A539E" fill-opacity="0.08"/>
<path d="M41.1172 170.908C38.8583 170.906 36.6926 170.007 35.0954 168.41C33.4982 166.812 32.5998 164.647 32.5974 162.388V48.3749C32.5965 46.1126 33.493 43.9424 35.0902 42.3402C36.6874 40.738 38.8549 39.8348 41.1172 39.8287H189.717C191.979 39.8348 194.147 40.738 195.744 42.3402C197.341 43.9424 198.238 46.1126 198.237 48.3749V162.388C198.235 164.647 197.336 166.812 195.739 168.41C194.142 170.007 191.976 170.906 189.717 170.908H41.1172Z" fill="white" stroke="#103984" stroke-width="2.51118"/>
<path d="M189.717 40.1575C191.892 40.1635 193.976 41.032 195.512 42.5725C197.047 44.113 197.909 46.1998 197.908 48.3749V162.388C197.906 164.56 197.042 166.642 195.506 168.178C193.971 169.714 191.889 170.578 189.717 170.58H41.117C38.9453 170.578 36.8633 169.714 35.3277 168.178C33.7921 166.642 32.9284 164.56 32.9261 162.388V48.3749C32.925 46.1998 33.7868 44.113 35.3224 42.5725C36.858 41.032 38.9419 40.1635 41.117 40.1575H189.717ZM189.717 39.5005H41.117C38.7671 39.5045 36.5149 40.4416 34.8557 42.1058C33.1965 43.7699 32.2661 46.0249 32.2691 48.3749V162.388C32.2681 163.551 32.4963 164.702 32.9406 165.776C33.3849 166.849 34.0366 167.825 34.8584 168.647C35.6802 169.469 36.656 170.121 37.7299 170.565C38.8038 171.009 39.9548 171.238 41.117 171.237H189.717C190.879 171.238 192.03 171.009 193.104 170.565C194.178 170.121 195.154 169.469 195.976 168.647C196.798 167.825 197.449 166.849 197.894 165.776C198.338 164.702 198.566 163.551 198.565 162.388V48.3749C198.568 46.0249 197.638 43.7699 195.978 42.1058C194.319 40.4416 192.067 39.5045 189.717 39.5005Z" fill="#EDF3FF" stroke="#103984" stroke-width="2.24811"/>
<path d="M32.5974 69.3609V48.3754C32.5965 46.1131 33.493 43.9428 35.0902 42.3407C36.6874 40.7385 38.8549 39.8353 41.1172 39.8292H189.717C191.98 39.8352 194.147 40.7383 195.745 42.3405C197.342 43.9427 198.238 46.113 198.238 48.3754V69.3615L32.5974 69.3609Z" fill="#EDF3FF" stroke="#103984" stroke-width="1.12405"/>
<path d="M189.717 40.1575C191.892 40.1635 193.976 41.032 195.512 42.5725C197.047 44.113 197.909 46.1998 197.908 48.3749V69.0322H32.9261V48.3749C32.925 46.1998 33.7868 44.113 35.3224 42.5725C36.858 41.032 38.9419 40.1635 41.117 40.1575H189.717ZM189.717 39.5005H41.117C38.7671 39.5045 36.5149 40.4416 34.8557 42.1058C33.1965 43.7699 32.2661 46.0249 32.2691 48.3749V69.6892H198.565V48.3749C198.568 46.0249 197.638 43.7699 195.978 42.1058C194.319 40.4416 192.067 39.5045 189.717 39.5005Z" fill="black" stroke="#103984" stroke-width="2.51118"/>
<path d="M76.5629 58.2508C75.9506 58.2507 75.352 58.0691 74.8428 57.7288C74.3335 57.3885 73.9365 56.9048 73.7021 56.3389C73.4677 55.773 73.4063 55.1502 73.5258 54.5495C73.6453 53.9487 73.9403 53.3968 74.3735 52.9637C74.8066 52.5305 75.3585 52.2356 75.9592 52.1161C76.56 51.9966 77.1828 52.0579 77.7487 52.2923C78.3146 52.5267 78.7983 52.9237 79.1386 53.433C79.4789 53.9422 79.6605 54.5408 79.6606 55.1531C79.6593 55.9743 79.3325 56.7614 78.7518 57.342C78.1712 57.9227 77.3841 58.2495 76.5629 58.2508Z" fill="#EDF3FF" stroke="#103984" stroke-width="1.67412"/>
<path d="M76.5636 51.5437C77.2769 51.5437 77.9742 51.7552 78.5673 52.1515C79.1604 52.5478 79.6226 53.1111 79.8956 53.7701C80.1686 54.4291 80.24 55.1543 80.1008 55.8539C79.9617 56.5535 79.6182 57.1961 79.1138 57.7005C78.6094 58.2048 77.9668 58.5483 77.2672 58.6875C76.5676 58.8266 75.8424 58.7552 75.1834 58.4823C74.5244 58.2093 73.9612 57.747 73.5649 57.1539C73.1686 56.5608 72.9571 55.8636 72.9571 55.1503C72.9583 54.1941 73.3386 53.2775 74.0147 52.6014C74.6908 51.9253 75.6074 51.5449 76.5636 51.5437ZM76.5636 50.8867C75.7203 50.8867 74.896 51.1368 74.1949 51.6053C73.4938 52.0737 72.9473 52.7396 72.6246 53.5187C72.3019 54.2977 72.2175 55.155 72.382 55.982C72.5465 56.8091 72.9525 57.5688 73.5488 58.165C74.1451 58.7613 74.9048 59.1674 75.7318 59.3319C76.5589 59.4964 77.4161 59.412 78.1952 59.0893C78.9742 58.7666 79.6401 58.2201 80.1086 57.519C80.5771 56.8178 80.8271 55.9935 80.8271 55.1503C80.827 54.0195 80.3777 52.9352 79.5782 52.1356C78.7787 51.3361 77.6943 50.8869 76.5636 50.8867Z" fill="black" stroke="#103984" stroke-width="1.12405"/>
<path d="M63.6231 58.8069C62.9007 58.8068 62.1946 58.5925 61.5939 58.1912C60.9932 57.7898 60.5249 57.2192 60.2484 56.5517C59.9719 55.8842 59.8996 55.1496 60.0405 54.441C60.1815 53.7323 60.5294 53.0814 61.0403 52.5705C61.5512 52.0596 62.2022 51.7117 62.9108 51.5707C63.6195 51.4297 64.354 51.5021 65.0215 51.7786C65.6891 52.0551 66.2596 52.5233 66.661 53.1241C67.0624 53.7247 67.2766 54.4309 67.2767 55.1533C67.2753 56.1218 66.8899 57.0503 66.2051 57.7352C65.5202 58.4201 64.5917 58.8055 63.6231 58.8069Z" fill="#EDF3FF" stroke="#103984" stroke-width="0.562027"/>
<path d="M63.6232 51.5437C64.3365 51.5437 65.0338 51.7552 65.6268 52.1515C66.2199 52.5478 66.6822 53.1111 66.9552 53.7701C67.2281 54.4291 67.2995 55.1543 67.1604 55.8539C67.0212 56.5535 66.6777 57.1961 66.1734 57.7005C65.669 58.2048 65.0264 58.5483 64.3268 58.6875C63.6272 58.8266 62.902 58.7552 62.243 58.4823C61.584 58.2093 61.0207 57.747 60.6244 57.1539C60.2282 56.5608 60.0166 55.8636 60.0166 55.1503C60.0178 54.1941 60.3982 53.2775 61.0743 52.6014C61.7504 51.9253 62.667 51.5449 63.6232 51.5437ZM63.6232 50.8867C62.7799 50.8867 61.9556 51.1368 61.2545 51.6053C60.5533 52.0737 60.0069 52.7396 59.6842 53.5187C59.3615 54.2977 59.277 55.155 59.4415 55.982C59.6061 56.8091 60.0121 57.5688 60.6084 58.165C61.2047 58.7613 61.9643 59.1674 62.7914 59.3319C63.6184 59.4964 64.4757 59.412 65.2547 59.0893C66.0338 58.7666 66.6997 58.2201 67.1682 57.519C67.6366 56.8178 67.8867 55.9935 67.8867 55.1503C67.8865 54.0195 67.4373 52.9352 66.6378 52.1356C65.8382 51.3361 64.7539 50.8869 63.6232 50.8867Z" fill="black" stroke="#103984" stroke-width="1.67412"/>
<path d="M50.6824 58.8069C49.9601 58.8068 49.2539 58.5925 48.6533 58.1912C48.0525 57.7898 47.5843 57.2192 47.3078 56.5517C47.0313 55.8842 46.9589 55.1496 47.0999 54.441C47.2408 53.7323 47.5888 53.0814 48.0997 52.5705C48.6106 52.0596 49.2615 51.7117 49.9701 51.5707C50.6788 51.4297 51.4133 51.5021 52.0809 51.7786C52.7484 52.0551 53.3189 52.5233 53.7204 53.1241C54.1217 53.7247 54.3359 54.4309 54.336 55.1533C54.3346 56.1218 53.9493 57.0503 53.2644 57.7352C52.5795 58.4201 51.651 58.8055 50.6824 58.8069Z" fill="#EDF3FF" stroke="#103984" stroke-width="0.562027"/>
<path d="M50.6831 51.5437C51.3964 51.5437 52.0937 51.7552 52.6868 52.1515C53.2799 52.5478 53.7421 53.1111 54.0151 53.7701C54.2881 54.4291 54.3595 55.1543 54.2203 55.8539C54.0812 56.5535 53.7377 57.1961 53.2333 57.7005C52.7289 58.2048 52.0863 58.5483 51.3867 58.6875C50.6871 58.8266 49.9619 58.7552 49.3029 58.4823C48.6439 58.2093 48.0807 57.747 47.6844 57.1539C47.2881 56.5608 47.0766 55.8636 47.0766 55.1503C47.0778 54.1941 47.4581 53.2775 48.1342 52.6014C48.8103 51.9253 49.7269 51.5449 50.6831 51.5437ZM50.6831 50.8867C49.8398 50.8867 49.0155 51.1368 48.3144 51.6053C47.6133 52.0737 47.0668 52.7396 46.7441 53.5187C46.4214 54.2977 46.337 55.155 46.5015 55.982C46.666 56.8091 47.072 57.5688 47.6683 58.165C48.2646 58.7613 49.0243 59.1674 49.8513 59.3319C50.6784 59.4964 51.5356 59.412 52.3147 59.0893C53.0937 58.7666 53.7596 58.2201 54.2281 57.519C54.6966 56.8178 54.9466 55.9935 54.9466 55.1503C54.9465 54.0195 54.4972 52.9352 53.6977 52.1356C52.8982 51.3361 51.8138 50.8869 50.6831 50.8867Z" fill="black" stroke="#103984" stroke-width="1.67412"/>
<path d="M175.934 60.536L175.836 60.4196C170.309 53.8911 167.356 45.57 167.53 37.0183C167.704 28.4666 170.994 20.2725 176.781 13.9743C182.569 7.67609 190.456 3.7069 198.962 2.81186C207.469 1.91683 216.009 4.1575 222.981 9.11325C229.953 14.069 234.875 21.399 236.826 29.7272C238.776 38.0553 237.619 46.809 233.572 54.3447C229.526 61.8804 222.868 67.68 214.848 70.6547C206.829 73.6294 197.999 73.5747 190.017 70.5007L189.891 70.4529L173.069 77.7593L175.934 60.536Z" fill="#EDF3FF" stroke="#103984" stroke-width="2.24811"/>
<path d="M202.678 2.73489C207.798 2.73791 212.856 3.86797 217.49 6.04487C222.125 8.22178 226.224 11.3922 229.496 15.331C232.769 19.2699 235.134 23.8807 236.424 28.8362C237.714 33.7917 237.898 38.9704 236.962 44.0048C236.026 49.0392 233.993 53.8059 231.008 57.9666C228.023 62.1273 224.159 65.58 219.69 68.0797C215.221 70.5794 210.256 72.0648 205.149 72.4305C200.041 72.7962 194.916 72.0331 190.136 70.1956L189.885 70.0989L189.638 70.2063L173.492 77.2209L176.234 60.7417L176.284 60.441L176.087 60.2089C171.774 55.1343 169.004 48.9311 168.104 42.3324C167.204 35.7337 168.212 29.0152 171.008 22.971C173.804 16.9267 178.273 11.8092 183.885 8.22331C189.497 4.6374 196.018 2.73291 202.678 2.73489ZM202.678 2.07788C195.893 2.0767 189.25 4.01753 183.533 7.67108C177.816 11.3246 173.264 16.5382 170.415 22.6958C167.566 28.8535 166.54 35.6979 167.456 42.4203C168.373 49.1428 171.195 55.4625 175.588 60.6327L172.648 78.3028L189.902 70.8082C194.773 72.6839 199.997 73.4642 205.203 73.0936C210.409 72.723 215.47 71.2107 220.026 68.6641C224.582 66.1174 228.521 62.5989 231.564 58.3583C234.607 54.1178 236.679 49.2593 237.633 44.1278C238.587 38.9963 238.399 33.7177 237.083 28.667C235.767 23.6162 233.355 18.9171 230.019 14.9035C226.682 10.8898 222.503 7.65994 217.778 5.44333C213.052 3.22672 207.897 2.0777 202.678 2.07788Z" fill="black" stroke="#103984" stroke-width="2.51118"/>
<path d="M193.417 22.4744C195.927 20.7823 198.85 19.8048 201.872 19.6468C204.895 19.4887 207.903 20.156 210.575 21.5771C213.248 22.9983 215.483 25.1197 217.042 27.7141C218.601 30.3085 219.424 33.2781 219.424 36.3048C219.424 37.5643 219.689 40.6369 219.424 41.816" stroke="#103984" stroke-width="3.34824" stroke-miterlimit="10"/>
<path d="M212.377 49.9222C209.56 51.9117 206.195 52.9793 202.746 52.9781C199.297 52.977 195.933 51.9072 193.117 49.9158C190.301 47.9244 188.171 45.1094 187.021 41.858C185.87 38.6065 185.755 35.0785 186.692 31.7592" stroke="#103984" stroke-width="3.34824" stroke-miterlimit="10"/>
<path d="M213.357 35.6191L218.421 42.554L225.136 36.7196" stroke="#103984" stroke-width="3.34824" stroke-miterlimit="10"/>
<path d="M180.218 36.1453L187.31 31.3029L191.688 39.0465" stroke="#103984" stroke-width="3.34824" stroke-miterlimit="10"/>
<path d="M16.7839 43.6639C17.5732 39.4008 19.5734 35.4551 22.5455 32.2985C25.5175 29.1418 29.3357 26.9078 33.5436 25.8634" fill="white"/>
<path d="M16.7839 43.6639C17.5732 39.4008 19.5734 35.4551 22.5455 32.2985C25.5175 29.1418 29.3357 26.9078 33.5436 25.8634" stroke="#103984" stroke-width="1.12405"/>
<path d="M16.7839 43.6639C17.5732 39.4008 19.5734 35.4551 22.5455 32.2985C25.5175 29.1418 29.3357 26.9078 33.5436 25.8634" stroke="#103984" stroke-width="2.24811" stroke-miterlimit="10"/>
<path d="M1.76855 41.1921C2.99319 34.2624 6.12981 27.8128 10.8246 22.5707C15.5194 17.3286 21.5856 13.5026 28.339 11.5244" fill="white"/>
<path d="M1.76855 41.1921C2.99319 34.2624 6.12981 27.8128 10.8246 22.5707C15.5194 17.3286 21.5856 13.5026 28.339 11.5244" stroke="#103984" stroke-width="1.12405"/>
<path d="M1.76855 41.1921C2.99319 34.2624 6.12981 27.8128 10.8246 22.5707C15.5194 17.3286 21.5856 13.5026 28.339 11.5244" stroke="#103984" stroke-width="2.24811" stroke-miterlimit="10"/>
<path d="M145.323 99.9668C146.15 99.9668 146.959 100.212 147.647 100.672C148.335 101.131 148.871 101.785 149.188 102.549C149.504 103.314 149.587 104.155 149.426 104.966C149.264 105.778 148.866 106.523 148.281 107.108C147.696 107.693 146.951 108.091 146.139 108.253C145.328 108.414 144.487 108.331 143.722 108.015C142.958 107.698 142.305 107.162 141.845 106.474C141.385 105.786 141.14 104.977 141.14 104.15C141.141 103.041 141.582 101.978 142.367 101.194C143.151 100.409 144.214 99.9682 145.323 99.9668ZM145.323 99.2047C144.345 99.2047 143.389 99.4948 142.575 100.038C141.762 100.582 141.128 101.354 140.754 102.258C140.379 103.162 140.281 104.156 140.472 105.115C140.663 106.075 141.134 106.956 141.826 107.648C142.517 108.339 143.399 108.811 144.358 109.001C145.318 109.192 146.312 109.094 147.216 108.72C148.119 108.346 148.892 107.712 149.435 106.898C149.979 106.085 150.269 105.129 150.269 104.151C150.269 103.501 150.141 102.858 149.892 102.258C149.644 101.658 149.28 101.113 148.82 100.653C148.361 100.194 147.816 99.8297 147.216 99.5812C146.616 99.3326 145.973 99.2047 145.323 99.2047Z" stroke="#103984" stroke-width="2.51118"/>
<path d="M85.4443 99.9668C86.2716 99.9668 87.0804 100.212 87.7683 100.672C88.4562 101.131 88.9924 101.785 89.309 102.549C89.6256 103.314 89.7085 104.155 89.547 104.966C89.3856 105.778 88.9872 106.523 88.4022 107.108C87.8172 107.693 87.0718 108.091 86.2604 108.253C85.4489 108.414 84.6078 108.331 83.8434 108.015C83.0791 107.698 82.4257 107.162 81.9661 106.474C81.5064 105.786 81.2611 104.977 81.2611 104.15C81.2624 103.041 81.7036 101.978 82.4878 101.194C83.272 100.409 84.3352 99.9682 85.4443 99.9668ZM85.4443 99.2047C84.4661 99.2047 83.5098 99.4948 82.6965 100.038C81.8832 100.582 81.2492 101.354 80.8749 102.258C80.5006 103.162 80.4026 104.156 80.5934 105.115C80.7843 106.075 81.2553 106.956 81.947 107.648C82.6387 108.339 83.52 108.811 84.4794 109.001C85.4388 109.192 86.4332 109.094 87.337 108.72C88.2407 108.346 89.0131 107.712 89.5566 106.898C90.1 106.085 90.3901 105.129 90.3901 104.151C90.3901 103.501 90.2622 102.858 90.0136 102.258C89.7651 101.658 89.4008 101.113 88.9415 100.653C88.4822 100.194 87.937 99.8297 87.337 99.5812C86.7369 99.3326 86.0938 99.2047 85.4443 99.2047Z" stroke="#103984" stroke-width="2.51118"/>
<path d="M129.458 137.402C128.077 134.762 125.999 132.551 123.45 131.008C120.902 129.465 117.979 128.649 115 128.649C112.021 128.649 109.098 129.465 106.549 131.008C104.001 132.551 101.923 134.762 100.542 137.402" fill="white"/>
<path d="M129.458 137.402C128.077 134.762 125.999 132.551 123.45 131.008C120.902 129.465 117.979 128.649 115 128.649C112.021 128.649 109.098 129.465 106.549 131.008C104.001 132.551 101.923 134.762 100.542 137.402" stroke="#103984" stroke-width="2.51118"/>
</svg>
