<svg width="32" height="32" viewBox="0 0 32 32" fill="none" xmlns="http://www.w3.org/2000/svg">
    <rect width="32" height="32" rx="8" fill="currentColor" />
    <path
        d="M21.5681 11.6689L11.6687 21.5684C11.3304 21.9067 10.7695 21.9067 10.4312 21.5684C10.093 21.2302 10.093 20.6692 10.4312 20.331L20.3307 10.4315C20.6689 10.0933 21.2299 10.0933 21.5681 10.4315C21.9064 10.7697 21.9064 11.3307 21.5681 11.6689Z"
        fill="#FCFCFC" />
    <path
        d="M21.5681 21.5685C21.2299 21.9067 20.6689 21.9067 20.3307 21.5685L10.4312 11.669C10.093 11.3308 10.093 10.7698 10.4312 10.4316C10.7695 10.0933 11.3304 10.0933 11.6687 10.4316L21.5681 20.3311C21.9064 20.6693 21.9064 21.2303 21.5681 21.5685Z"
        fill="#FCFCFC" />
</svg>