<svg xmlns="http://www.w3.org/2000/svg" width="72" height="33" viewBox="0 0 72 33" fill="none">
  <path d="M35.6831 4.52472C35.5281 4.6283 35.2208 5.16529 34.9 4.91724C34.5819 4.66919 34.726 4.691 34.571 4.93905C34.416 5.1871 34.416 5.198 34.242 5.30976C34.068 5.42425 33.913 5.45423 33.6846 5.45423C33.4589 5.45423 33.3964 5.43243 33.274 5.16529C33.1517 4.89544 32.7792 5.36155 32.9042 5.95034C33.0266 6.53912 33.6656 6.30197 33.894 6.21747C34.1196 6.13569 34.0789 5.9994 34.4079 6.0948C34.7369 6.18748 35.3541 5.93943 35.7266 5.39154C36.0964 4.84637 35.8381 4.42387 35.6831 4.52472Z" fill="currentColor"/>
  <path d="M60.784 31.0593C61.2191 30.4678 61.1212 30.0317 60.6943 29.4647C60.3381 28.9904 59.8296 28.5706 59.5985 28.5597C59.1988 28.5379 57.6598 31.0511 57.668 31.0729C57.7088 31.1765 58.7529 31.6072 58.9405 32.0297C59.3592 32.9892 60.4795 31.4736 60.784 31.0593Z" fill="currentColor"/>
  <path d="M17.3529 29.1183C17.4753 28.5922 16.8907 28.2624 16.6106 28.0852C16.3333 27.9107 15.765 27.2701 15.436 27.7335C15.107 28.1997 14.3022 29.3963 14.0357 29.9224C13.7693 30.4485 14.468 30.4703 14.8378 30.7701C15.2076 31.07 15.1668 31.0591 15.2702 31.2662C15.4523 31.6315 16.4421 30.4975 16.5862 30.3231C16.9505 29.8924 17.285 29.4018 17.3529 29.1183Z" fill="currentColor"/>
  <path d="M20.5024 28.8717C20.6356 28.2312 19.7601 27.5715 19.3278 27.3235C18.8954 27.0754 18.977 27.0972 18.7704 27.3235C18.5637 27.5497 18.2456 28.0676 17.9873 28.3756C17.729 28.6864 17.5223 29.0271 17.2858 29.4687C17.0492 29.913 17.4 29.8503 17.9655 30.2946C18.5311 30.7389 18.4087 31.1832 18.9145 30.9134C19.4202 30.649 20.3692 29.5123 20.5024 28.8717Z" fill="currentColor"/>
  <path d="M6.66081 17.0603C6.51398 17.1011 5.48619 18.9384 5.32305 19.3936C5.15718 19.8488 5.63301 20.0532 6.0028 20.3013C6.37259 20.5493 6.38347 20.5493 6.5167 20.7347C7.04963 21.4734 7.38135 20.9255 7.97681 20.0178C8.23512 19.6253 8.43089 19.2082 8.45264 18.9166C8.50431 18.2651 8.14268 17.9353 7.83543 17.6981C7.52546 17.4637 6.80763 17.0194 6.66081 17.0603Z" fill="currentColor"/>
  <path d="M61.1782 12.753C61.3523 11.8644 61.045 12.1942 60.89 12.5867C60.735 12.9792 60.7459 13.0092 60.6236 13.3908C60.5012 13.7725 60.3462 13.8733 60.0471 14.9609C59.748 16.0485 59.003 20.9877 59.0982 22.4161C59.1933 23.8417 59.8704 24.2097 60.5964 24.2042C61.3223 24.1961 62.3828 21.582 62.3936 20.9496C62.4072 20.3199 62.4344 19.9492 62.1054 20.7233C61.7764 21.4975 60.7677 21.3748 60.4359 20.2899C60.1069 19.205 61.0042 13.6389 61.1782 12.753Z" fill="currentColor"/>
  <path d="M0.75 24.7004C0.801661 25.9433 1.079 26.9465 2.62341 27.876C3.64304 28.3557 4.92642 28.4211 5.94334 28.0831C7.5095 27.5652 9.05662 26.2841 9.81251 25.1747C10.5059 24.1552 11.0116 23.1548 11.376 21.9773C11.7974 20.6171 12.1645 18.9379 12.2025 18.2565C12.2243 17.8749 12.2433 17.5641 12.2651 17.2234C12.2868 16.8827 12.276 16.5419 12.3059 16.2121C12.3358 15.8823 12.7382 14.0669 12.4092 14.1895C12.0802 14.3095 11.1938 16.4411 11.1312 17.0598C11.0687 17.6786 11.0905 18.1447 11.0687 18.7744C11.047 19.4041 11.1612 19.7666 11.0905 20.5707C11.017 21.3748 10.3699 22.6451 9.73094 23.2966C8.68412 24.3624 7.14515 24.8857 5.69319 25.0711C5.2092 25.1338 4.38534 25.0493 4.06721 24.9675C3.1509 24.7303 2.15574 24.2315 1.88383 23.2529C1.65815 22.4379 1.85392 20.6607 2.1938 19.9083C2.53368 19.1533 2.65604 18.8153 2.79199 18.5045C2.92522 18.1938 3.46359 17.1525 3.22431 17.0598C2.98504 16.9672 1.81042 19.5567 1.61465 19.9928C0.948489 21.473 0.75 23.0921 0.75 24.7004Z" fill="currentColor"/>
  <path d="M20.9563 17.02C20.679 17.1644 20.3989 17.8568 20.0509 18.113C19.7002 18.372 18.5989 19.0098 18.3624 19.2906C18.1258 19.5686 18.1258 19.6204 17.9301 19.8685C17.7588 20.0865 17.6745 20.4954 17.4026 21.0487C16.9594 22.1772 16.0539 22.7933 15.1947 23.2894C15.0316 23.3848 13.3349 24.287 13.2751 24.3715C13.1718 24.516 12.9651 24.9712 13.2343 25.0312C13.8352 25.1702 15.744 24.5187 16.2823 24.1235C16.8996 23.6683 17.3727 22.0082 17.7234 21.5203C18.0742 21.0351 18.4657 20.7053 18.8137 20.5717C19.1645 20.4382 19.7409 20.0647 20.0074 19.724C20.2739 19.3833 20.5621 18.6718 20.7279 18.4238C20.8938 18.1757 21.2337 16.8755 20.9563 17.02Z" fill="currentColor"/>
  <path d="M56.7371 6.99387C57.1722 6.40237 57.0743 5.96623 56.6474 5.39926C56.2912 4.92496 55.7828 4.50519 55.5516 4.49428C55.1519 4.47248 53.613 6.9857 53.6211 7.0075C53.6619 7.11109 54.706 7.54177 54.8936 7.96427C55.3096 8.92377 56.4326 7.40548 56.7371 6.99387Z" fill="currentColor"/>
  <path d="M24.6887 9.52223C24.5119 9.68033 23.7723 11.4439 23.6799 11.7738C23.5875 12.1036 23.4433 12.6106 23.3509 13.074C23.0736 14.4587 23.0899 16.0043 22.837 17.389C22.7146 18.0596 22.6521 18.5338 22.6113 18.7928C22.5705 19.0518 22.2415 20.2593 22.5705 19.845C22.8995 19.4334 23.321 18.2149 23.5793 17.5934C23.8376 16.9747 24.0633 15.5709 24.1367 14.9303C24.2074 14.2897 24.3026 14.0117 24.3433 13.5047C24.414 12.6488 24.4902 11.5148 24.7131 10.6971C24.7702 10.4708 24.8654 9.36413 24.6887 9.52223Z" fill="currentColor"/>
  <path d="M16.8375 10.7201C16.6716 10.8127 16.1469 12.2574 15.9511 12.8271C15.7553 13.3941 15.5704 14.5008 15.4154 15.3458C15.2605 16.1935 15.168 17.3902 15.1272 18.0716C15.0864 18.7531 14.9722 19.1238 14.9206 19.3719C14.8689 19.6199 14.3224 20.9092 14.8988 20.3832C15.4753 19.8571 16.2801 16.7496 16.4432 15.8201C16.6091 14.8906 16.6499 13.7239 16.7314 13.0725C16.813 12.421 16.8647 12.0721 16.9381 11.7504C17.0115 11.4315 17.0523 11.3688 17.0822 11.1507C17.1148 10.9354 17.0006 10.6274 16.8375 10.7201Z" fill="currentColor"/>
  <path d="M71.0783 0.8716C69.8194 1.71661 69.0064 2.3381 67.5952 3.13677C65.6864 4.21348 63.7451 5.31199 61.7792 6.28511C60.8004 6.77031 57.959 8.40036 57.2466 9.34078C56.5369 10.2812 56.3112 10.532 55.7838 11.6523C55.2563 12.7726 54.6064 14.9969 54.3617 15.9264C53.9348 17.5592 53.5324 18.3415 51.9717 19.2301C50.6122 20.0043 48.1868 20.713 46.3487 21.0673C44.508 21.4217 40.1738 21.5607 38.6457 21.438C37.1176 21.3181 36.5059 21.1191 35.9267 20.6339C35.3476 20.1487 35.5787 19.331 35.3911 19.3528C35.2034 19.3773 35.0702 20.5985 34.9995 20.9638C34.9288 21.329 34.7956 21.7597 34.8772 22.6374C34.9587 23.5124 36.2639 23.894 37.308 24.0821C38.3521 24.2702 41.3756 24.2675 43.7765 23.9594C46.1774 23.6487 50.207 22.5856 52.1185 20.7184C52.2545 20.5849 53.8886 18.5841 53.9103 18.6114C53.9756 18.6959 53.6955 19.778 53.6629 20.2005C53.633 20.623 53.5895 21.1082 53.5188 21.8933C53.4454 22.6783 53.3856 24.0194 54.2394 24.8045C55.0931 25.5895 55.9632 24.6082 56.3194 23.9376C56.5424 23.5179 57.0046 22.4793 57.1406 21.8278C57.2058 21.5089 57.1569 21.269 57.0399 21.2745C56.8415 21.2799 56.5451 22.9209 55.2807 21.7134C54.9626 21.2772 54.8239 20.7484 54.8158 20.1405C54.7886 18.2107 55.3324 15.8037 55.7131 14.0783C55.9007 13.2333 56.159 12.2411 56.4227 11.426C56.6294 10.7855 56.8034 10.611 57.5348 10.0849C58.2662 9.55885 61.2843 7.84429 62.3747 7.21463C65.0529 5.66908 68.0493 4.1944 70.5725 2.5071C70.8281 2.33537 71.1626 1.9265 71.3665 1.5367C71.5731 1.14691 71.6683 0.473627 71.0783 0.8716Z" fill="currentColor"/>
  <path d="M26.7233 15.9641C26.6608 15.7978 26.5167 15.697 26.3536 16.005C25.4155 17.7659 24.7085 19.0116 24.0451 20.9606C23.6998 21.9773 23.4496 23.7518 23.591 24.8231C23.6889 25.5645 24.0288 26.6848 24.5182 27.2191C25.4182 28.1977 27.1665 28.413 28.3901 28.0042C30.1194 27.4263 31.585 26.2651 32.4822 24.3842C32.8955 23.5201 33.1973 22.836 33.4176 21.9664C33.6487 21.0505 34.1925 19.1833 33.2544 18.401C33.1049 18.2784 32.9363 18.1448 32.7569 18.0194C32.3409 17.7332 31.9765 17.4606 32.0119 17.049C32.0336 16.7901 32.2212 16.542 32.3463 16.2231C32.4387 15.9832 32.5828 15.6834 32.6943 15.4789C32.8466 15.1982 32.8004 15.2036 33.0831 15.3644C33.3741 15.5307 33.7629 15.7488 34.2686 15.5035C34.7118 15.2881 35.0626 14.8193 35.3155 14.3286C35.5575 13.8598 35.707 13.3364 35.7478 12.8867C35.7886 12.4532 35.4949 11.5619 35.1224 11.6191C34.7499 11.6764 34.7336 12.5405 34.3421 12.4696C33.9505 12.3987 33.7847 12.3469 33.5998 11.7473C33.4149 11.1476 33.5372 9.61019 33.6623 9.04322C33.7847 8.47624 33.7656 8.60981 33.7847 8.38357C33.8064 8.15732 33.6405 7.77298 33.4964 8.07282C33.298 8.48442 32.9635 9.68652 32.8547 10.1853C32.6998 10.8832 32.6155 11.8045 32.5094 12.4805C32.3844 13.2819 32.3898 13.8761 32.2783 14.653C32.1804 15.3399 31.7807 16.2231 31.3783 17.0626C30.9759 17.8995 30.6442 18.7063 30.685 19.3033C30.7584 20.35 31.585 20.5626 32.2457 20.8434C32.9173 21.1269 33.3469 21.4676 32.4279 22.7733C31.2179 24.4905 29.1732 25.1148 27.6995 25.1093C26.1823 25.1011 25.1626 24.605 24.6814 23.0459C24.5536 22.6315 24.5835 21.7756 24.7901 20.8924C25.0511 19.7776 25.5406 18.6136 25.7744 18.1312C26.1877 17.2862 26.7859 16.1304 26.7233 15.9641Z" fill="currentColor"/>
</svg>