<svg width="32" height="32" viewBox="0 0 32 32" fill="none" xmlns="http://www.w3.org/2000/svg">
    <rect width="32" height="32" rx="8" fill="currentColor" />
    <path
        d="M24.2497 16.2017C24.2497 11.1692 20.3447 7.75 15.9997 7.75C11.7005 7.75 7.74967 11.0958 7.74967 16.2567C7.19967 16.5683 6.83301 17.155 6.83301 17.8333V19.6667C6.83301 20.675 7.65801 21.5 8.66634 21.5C9.17051 21.5 9.58301 21.0875 9.58301 20.5833V16.1742C9.58301 12.6633 12.2872 9.5925 15.798 9.49167C19.428 9.38167 22.4163 12.2967 22.4163 15.9083V22.4167H15.9997C15.4955 22.4167 15.083 22.8292 15.083 23.3333C15.083 23.8375 15.4955 24.25 15.9997 24.25H22.4163C23.4247 24.25 24.2497 23.425 24.2497 22.4167V21.2983C24.7905 21.0142 25.1663 20.455 25.1663 19.795V17.6867C25.1663 17.045 24.7905 16.4858 24.2497 16.2017Z"
        fill="#FCFCFC" />
</svg>